<svg width="274" height="191" viewBox="0 0 274 191" fill="none" xmlns="http://www.w3.org/2000/svg">
<path d="M137.003 0C133.536 0 130.111 0.596757 126.857 1.74765L6.7708 44.9274C2.70371 46.4192 0.00658966 50.2556 0.00658966 54.5607C0.00658966 58.8659 2.70371 62.7022 6.7708 64.1941L31.5586 73.1029C24.5376 84.1003 20.5561 97.1011 20.5561 110.784V122.762C20.5561 134.867 15.9325 147.357 11.0091 157.203C8.22639 162.744 5.05834 168.201 1.37656 173.23C0.00658967 175.063 -0.378714 177.45 0.391893 179.624C1.1625 181.798 2.96058 183.418 5.18678 183.972L32.5861 190.792C34.3842 191.261 36.3107 190.92 37.8947 189.94C39.4788 188.959 40.5919 187.339 40.9344 185.507C44.6161 167.263 42.7752 150.895 40.0353 139.173C38.6653 133.12 36.8245 126.939 34.2558 121.27V110.784C34.2558 97.9109 38.6225 85.7627 46.2002 76.044C51.7228 69.4371 58.8724 64.1089 67.2634 60.8267L134.477 34.5267C137.988 33.1627 141.969 34.8677 143.339 38.363C144.709 41.8583 142.997 45.8225 139.486 47.1865L72.2724 73.4865C66.9637 75.5751 62.2973 78.7721 58.4871 82.6936L126.814 107.246C130.068 108.397 133.493 108.994 136.96 108.994C140.428 108.994 143.853 108.397 147.107 107.246L267.236 64.1941C271.303 62.7449 274 58.8659 274 54.5607C274 50.2556 271.303 46.4192 267.236 44.9274L147.15 1.74765C143.896 0.596757 140.471 0 137.003 0ZM54.8053 160.272C54.8053 175.319 91.6231 190.963 137.003 190.963C182.383 190.963 219.201 175.319 219.201 160.272L212.651 98.2946L151.773 120.204C147.021 121.909 142.012 122.762 137.003 122.762C131.994 122.762 126.943 121.909 122.233 120.204L61.3554 98.2946L54.8053 160.272Z" fill="#3696B2"/>
</svg>
