<svg width="219" height="191" viewBox="0 0 219 191" fill="none" xmlns="http://www.w3.org/2000/svg">
<path d="M57.8297 36.4094L46.6658 68.2143H172.334L161.17 36.4094C159.246 30.9522 154.07 27.2857 148.253 27.2857H70.7473C64.9301 27.2857 59.7545 30.9522 57.8297 36.4094ZM16.9383 70.2607L31.9945 27.4136C37.7689 10.9996 53.2957 0 70.7473 0H148.253C165.704 0 181.231 10.9996 187.005 27.4136L202.062 70.2607C211.985 74.3536 219 84.1167 219 95.5V156.893V177.357C219 184.903 212.883 191 205.312 191H191.625C184.054 191 177.938 184.903 177.938 177.357V156.893H41.0625V177.357C41.0625 184.903 34.9459 191 27.375 191H13.6875C6.1166 191 0 184.903 0 177.357V156.893V95.5C0 84.1167 7.01484 74.3536 16.9383 70.2607ZM54.75 109.143C54.75 105.525 53.3079 102.054 50.741 99.4959C48.1741 96.9374 44.6927 95.5 41.0625 95.5C37.4323 95.5 33.9509 96.9374 31.384 99.4959C28.8171 102.054 27.375 105.525 27.375 109.143C27.375 112.761 28.8171 116.231 31.384 118.79C33.9509 121.348 37.4323 122.786 41.0625 122.786C44.6927 122.786 48.1741 121.348 50.741 118.79C53.3079 116.231 54.75 112.761 54.75 109.143ZM177.938 122.786C181.568 122.786 185.049 121.348 187.616 118.79C190.183 116.231 191.625 112.761 191.625 109.143C191.625 105.525 190.183 102.054 187.616 99.4959C185.049 96.9374 181.568 95.5 177.938 95.5C174.307 95.5 170.826 96.9374 168.259 99.4959C165.692 102.054 164.25 105.525 164.25 109.143C164.25 112.761 165.692 116.231 168.259 118.79C170.826 121.348 174.307 122.786 177.938 122.786Z" fill="#7E7AB3"/>
</svg>
