<svg width="48" height="38" viewBox="0 0 48 38" fill="none" xmlns="http://www.w3.org/2000/svg">
<path d="M15.8851 0C16.4701 0 16.9576 0.423047 17.1376 0.979687C18.0601 3.85195 20.7826 5.9375 24 5.9375C27.2174 5.9375 29.9399 3.85195 30.8624 0.979687C31.0424 0.423047 31.5299 0 32.1149 0H33.0598C34.7473 0 36.3748 0.586328 37.6723 1.65508L47.1371 9.45547C47.6321 9.86367 47.9396 10.4574 47.9921 11.0957C48.0446 11.734 47.8346 12.3648 47.4071 12.8473L43.2072 17.5973C42.3522 18.5695 40.8672 18.6809 39.8622 17.857L35.9998 14.673V33.25C35.9998 35.8699 33.8473 38 31.1999 38H16.8001C14.1527 38 12.0002 35.8699 12.0002 33.25V14.673L8.13778 17.857C7.1403 18.6809 5.65532 18.5695 4.79284 17.5973L0.59291 12.8473C0.165418 12.3648 -0.0445786 11.734 0.00792045 11.0957C0.0604195 10.4574 0.367914 9.86367 0.862905 9.45547L10.3277 1.65508C11.6252 0.586328 13.2527 0 14.9402 0H15.8851Z" fill="#0D6680"/>
</svg>
