<svg width="216" height="219" viewBox="0 0 216 219" fill="none" xmlns="http://www.w3.org/2000/svg">
<path d="M80.3672 29.4281L95.0484 54.75H94.5H64.125C54.8016 54.75 47.25 47.0936 47.25 37.6406C47.25 28.1877 54.8016 20.5312 64.125 20.5312H65.0531C71.3391 20.5312 77.2031 23.9104 80.3672 29.4281ZM27 37.6406C27 43.8 28.4766 49.6172 31.05 54.75H13.5C6.03281 54.75 0 60.8666 0 68.4375V95.8125C0 103.383 6.03281 109.5 13.5 109.5H202.5C209.967 109.5 216 103.383 216 95.8125V68.4375C216 60.8666 209.967 54.75 202.5 54.75H184.95C187.523 49.6172 189 43.8 189 37.6406C189 16.8527 172.378 0 151.875 0H150.947C137.489 0 125.002 7.22871 118.167 18.9914L108 36.5713L97.8328 19.0342C90.9984 7.22871 78.5109 0 65.0531 0H64.125C43.6219 0 27 16.8527 27 37.6406ZM168.75 37.6406C168.75 47.0936 161.198 54.75 151.875 54.75H121.5H120.952L135.633 29.4281C138.839 23.9104 144.661 20.5312 150.947 20.5312H151.875C161.198 20.5312 168.75 28.1877 168.75 37.6406ZM13.5 123.188V198.469C13.5 209.804 22.5703 219 33.75 219H94.5V123.188H13.5ZM121.5 219H182.25C193.43 219 202.5 209.804 202.5 198.469V123.188H121.5V219Z" fill="#9DAAB0"/>
</svg>
