<svg width="274" height="191" viewBox="0 0 274 191" fill="none" xmlns="http://www.w3.org/2000/svg">
<path d="M41.1 13.6429C41.1 6.09665 47.2222 0 54.8 0H68.5C76.0778 0 82.2 6.09665 82.2 13.6429V81.8571V109.143V177.357C82.2 184.903 76.0778 191 68.5 191H54.8C47.2222 191 41.1 184.903 41.1 177.357V150.071H27.4C19.8222 150.071 13.7 143.975 13.7 136.429V109.143C6.12219 109.143 0 103.046 0 95.5C0 87.9538 6.12219 81.8571 13.7 81.8571V54.5714C13.7 47.0252 19.8222 40.9286 27.4 40.9286H41.1V13.6429ZM232.9 13.6429V40.9286H246.6C254.178 40.9286 260.3 47.0252 260.3 54.5714V81.8571C267.878 81.8571 274 87.9538 274 95.5C274 103.046 267.878 109.143 260.3 109.143V136.429C260.3 143.975 254.178 150.071 246.6 150.071H232.9V177.357C232.9 184.903 226.778 191 219.2 191H205.5C197.922 191 191.8 184.903 191.8 177.357V109.143V81.8571V13.6429C191.8 6.09665 197.922 0 205.5 0H219.2C226.778 0 232.9 6.09665 232.9 13.6429ZM178.1 81.8571V109.143H95.9V81.8571H178.1Z" fill="#9DAAB0"/>
</svg>
