<svg width="165" height="219" viewBox="0 0 165 219" fill="none" xmlns="http://www.w3.org/2000/svg">
<path d="M165 27.375C165 12.276 152.668 0 137.5 0H27.5C12.332 0 0 12.276 0 27.375V191.625C0 206.724 12.332 219 27.5 219H137.5C152.668 219 165 206.724 165 191.625V27.375ZM55 82.125C55 74.8647 57.8973 67.9018 63.0546 62.768C68.2118 57.6341 75.2065 54.75 82.5 54.75C89.7935 54.75 96.7882 57.6341 101.945 62.768C107.103 67.9018 110 74.8647 110 82.125C110 89.3853 107.103 96.3482 101.945 101.482C96.7882 106.616 89.7935 109.5 82.5 109.5C75.2065 109.5 68.2118 106.616 63.0546 101.482C57.8973 96.3482 55 89.3853 55 82.125ZM34.375 152.53C34.375 136.319 47.5664 123.188 63.8516 123.188H101.191C117.477 123.188 130.668 136.319 130.668 152.53C130.668 158.989 125.383 164.25 118.895 164.25H46.2344C39.6602 164.25 34.375 158.989 34.375 152.53Z" fill="#9DAAB0"/>
</svg>
