<svg width="247" height="219" viewBox="0 0 247 219" fill="none" xmlns="http://www.w3.org/2000/svg">
<path d="M171.528 41.0625V41.3619C169.255 41.1908 166.982 41.0625 164.667 41.0625H109.778C102.702 41.0625 95.8411 41.9607 89.2802 43.6289C89.2373 42.7734 89.1944 41.918 89.1944 41.0625C89.1944 18.3926 107.634 0 130.361 0C153.089 0 171.528 18.3926 171.528 41.0625ZM164.667 54.75C166.168 54.75 167.668 54.7928 169.126 54.8783C170.927 55.0066 172.728 55.1777 174.53 55.4344C182.077 46.6658 193.312 41.0625 205.833 41.0625H210.765C215.224 41.0625 218.484 45.2543 217.411 49.5744L211.494 73.1854C218.269 79.5158 223.801 87.215 227.574 95.8125H233.278C240.868 95.8125 247 101.929 247 109.5V150.562C247 158.133 240.868 164.25 233.278 164.25H219.556C215.653 169.426 211.022 174.045 205.833 177.938V205.312C205.833 212.883 199.701 219 192.111 219H178.389C170.799 219 164.667 212.883 164.667 205.312V191.625H109.778V205.312C109.778 212.883 103.646 219 96.0556 219H82.3333C74.7432 219 68.6111 212.883 68.6111 205.312V177.938C53.6453 166.731 43.4394 149.579 41.5097 130.031H29.1597C13.0361 130.031 0 117.028 0 100.945C0 84.8625 13.0361 71.8594 29.1597 71.8594H30.875C36.5783 71.8594 41.1667 76.4361 41.1667 82.125C41.1667 87.8139 36.5783 92.3906 30.875 92.3906H29.1597C24.4427 92.3906 20.5833 96.2402 20.5833 100.945C20.5833 105.65 24.4427 109.5 29.1597 109.5H42.5389C47.7276 83.9215 67.2818 63.5186 92.4106 56.9742C97.9424 55.5199 103.774 54.75 109.778 54.75H164.667ZM192.111 112.922C192.111 110.199 191.027 107.588 189.097 105.663C187.167 103.738 184.549 102.656 181.819 102.656C179.09 102.656 176.472 103.738 174.542 105.663C172.612 107.588 171.528 110.199 171.528 112.922C171.528 115.644 172.612 118.256 174.542 120.181C176.472 122.106 179.09 123.188 181.819 123.188C184.549 123.188 187.167 122.106 189.097 120.181C191.027 118.256 192.111 115.644 192.111 112.922Z" fill="#0D6680"/>
</svg>
