<svg width="273" height="219" viewBox="0 0 273 219" fill="none" xmlns="http://www.w3.org/2000/svg">
<path d="M90.3467 0C93.6739 0 96.4465 2.43809 97.4702 5.64609C102.717 22.1994 118.201 34.2188 136.5 34.2188C154.799 34.2188 170.283 22.1994 175.53 5.64609C176.554 2.43809 179.326 0 182.653 0H188.028C197.625 0 206.882 3.3791 214.261 9.53848L268.092 54.4934C270.907 56.8459 272.656 60.2678 272.955 63.9463C273.254 67.6248 272.059 71.2605 269.628 74.0408L245.741 101.416C240.878 107.019 232.432 107.661 226.716 102.913L204.749 84.5631V191.625C204.749 206.724 192.507 219 177.449 219H95.5507C80.4933 219 68.2512 206.724 68.2512 191.625V84.5631L46.2836 102.913C40.6104 107.661 32.1646 107.019 27.2593 101.416L3.37218 74.0408C0.940813 71.2605 -0.253541 67.6248 0.0450476 63.9463C0.343636 60.2678 2.09251 56.8459 4.90777 54.4934L58.739 9.53848C66.1184 3.3791 75.3747 0 84.9722 0H90.3467Z" fill="#F8FBFD"/>
</svg>
