<svg width="41" height="38" viewBox="0 0 41 38" fill="none" xmlns="http://www.w3.org/2000/svg">
<path d="M20.3412 0C31.0203 0 38.1397 2.6125 38.1397 5.9375V7.125V9.5C39.5461 9.5 40.6824 10.5613 40.6824 11.875V16.625C40.6824 17.9387 39.5461 19 38.1397 19V30.875C38.1397 32.1887 37.0035 33.25 35.5971 33.25V35.625C35.5971 36.9387 34.4608 38 33.0544 38H30.5118C29.1054 38 27.9691 36.9387 27.9691 35.625V33.25H12.7132V35.625C12.7132 36.9387 11.577 38 10.1706 38H7.62794C6.22154 38 5.08529 36.9387 5.08529 35.625V33.25C3.67889 33.25 2.54265 32.1887 2.54265 30.875V19C1.13625 19 0 17.9387 0 16.625V11.875C0 10.5613 1.13625 9.5 2.54265 9.5V7.125V5.9375C2.54265 2.6125 9.66206 0 20.3412 0ZM7.62794 11.875V19C7.62794 20.3137 8.76419 21.375 10.1706 21.375H19.0699V9.5H10.1706C8.76419 9.5 7.62794 10.5613 7.62794 11.875ZM21.6125 21.375H30.5118C31.9182 21.375 33.0544 20.3137 33.0544 19V11.875C33.0544 10.5613 31.9182 9.5 30.5118 9.5H21.6125V21.375ZM8.89926 29.6875C9.57362 29.6875 10.2203 29.4373 10.6972 28.9919C11.174 28.5465 11.4419 27.9424 11.4419 27.3125C11.4419 26.6826 11.174 26.0785 10.6972 25.6331C10.2203 25.1877 9.57362 24.9375 8.89926 24.9375C8.22491 24.9375 7.57818 25.1877 7.10134 25.6331C6.6245 26.0785 6.35662 26.6826 6.35662 27.3125C6.35662 27.9424 6.6245 28.5465 7.10134 28.9919C7.57818 29.4373 8.22491 29.6875 8.89926 29.6875ZM31.7831 29.6875C32.4574 29.6875 33.1042 29.4373 33.581 28.9919C34.0579 28.5465 34.3257 27.9424 34.3257 27.3125C34.3257 26.6826 34.0579 26.0785 33.581 25.6331C33.1042 25.1877 32.4574 24.9375 31.7831 24.9375C31.1087 24.9375 30.462 25.1877 29.9852 25.6331C29.5083 26.0785 29.2404 26.6826 29.2404 27.3125C29.2404 27.9424 29.5083 28.5465 29.9852 28.9919C30.462 29.4373 31.1087 29.6875 31.7831 29.6875ZM27.9691 5.9375C27.9691 5.28437 27.397 4.75 26.6978 4.75H13.9846C13.2853 4.75 12.7132 5.28437 12.7132 5.9375C12.7132 6.59063 13.2853 7.125 13.9846 7.125H26.6978C27.397 7.125 27.9691 6.59063 27.9691 5.9375Z" fill="#0D6680"/>
</svg>
