<svg width="42" height="36" viewBox="0 0 42 36" fill="none" xmlns="http://www.w3.org/2000/svg">
<path d="M0 12.8571C0 10.0205 2.3543 7.71429 5.25 7.71429C5.29102 7.71429 5.34023 7.71429 5.38125 7.71429C5.98828 4.78125 8.63789 2.57143 11.8125 2.57143C13.043 2.57143 14.1914 2.90089 15.1676 3.47143C16.2586 1.41429 18.4652 0 21 0C23.5348 0 25.7414 1.41429 26.8324 3.47143C27.8086 2.90089 28.957 2.57143 30.1875 2.57143C33.3621 2.57143 36.0117 4.78125 36.6187 7.71429C36.6598 7.71429 36.709 7.71429 36.75 7.71429C39.6457 7.71429 42 10.0205 42 12.8571C42 13.7973 41.7457 14.6732 41.2945 15.4286H0.705469C0.254297 14.6732 0 13.7973 0 12.8571ZM0 20.2018C0 18.9884 1.00898 18 2.24766 18H39.7441C40.9828 18 41.9918 18.9884 41.9918 20.2018C41.9918 25.867 38.3496 30.7045 33.2391 32.5848L33.0996 33.75C32.9355 35.0357 31.8199 36 30.491 36H11.5008C10.1801 36 9.05625 35.0357 8.89219 33.75L8.74453 32.5929C3.64219 30.7045 0 25.867 0 20.2018Z" fill="#0D6680"/>
</svg>
