<svg width="68" height="58" viewBox="0 0 68 58" fill="none" xmlns="http://www.w3.org/2000/svg">
<path d="M1.42307 25.5878C-0.474363 27.4751 -0.474363 30.54 1.42307 32.4273L25.7101 56.5845C27.6076 58.4718 30.689 58.4718 32.5864 56.5845C34.4838 54.6973 34.4838 51.6323 32.5864 49.745L16.5721 33.8314L63.1426 33.8315C65.8293 33.8315 68 31.6724 68 29C68 26.3276 65.8293 24.1686 63.1426 24.1686L16.5873 24.1686L32.5712 8.25499C34.4687 6.3677 34.4687 3.30275 32.5712 1.41547C30.6738 -0.471816 27.5924 -0.471817 25.695 1.41547L1.40789 25.5727L1.42307 25.5878Z" fill="#0D6680"/>
</svg>
