<svg width="36" height="40" viewBox="0 0 36 40" fill="none" xmlns="http://www.w3.org/2000/svg">
<path d="M17.9983 0.272705C16.5904 0.272705 15.4529 1.35688 15.4529 2.69884C15.4529 3.54398 14.8483 4.25809 14.0414 4.50938C8.95155 6.09446 5.2712 10.6603 5.2712 16.0426V17.4679C5.2712 21.0313 3.89509 24.4734 1.4133 27.1422L0.824672 27.7714C0.156499 28.4841 -0.00259005 29.5077 0.403086 30.3795C0.808763 31.2514 1.72352 31.8125 2.72578 31.8125H33.2708C34.2731 31.8125 35.1799 31.2514 35.5935 30.3795C36.0072 29.5077 35.8401 28.4841 35.1719 27.7714L34.5833 27.1422C32.1015 24.4734 30.7254 21.0389 30.7254 17.4679V16.0426C30.7254 10.6603 27.0451 6.09446 21.9552 4.50938C21.1483 4.25809 20.5437 3.54398 20.5437 2.69884C20.5437 1.35688 19.4062 0.272705 17.9983 0.272705ZM21.6017 37.6731C23.1397 36.2071 21.3667 34.2386 19.2419 34.2386H17.9983H16.7547C14.63 34.2386 12.8569 36.2071 14.3949 37.6731C15.3495 38.5829 16.6461 39.0909 17.9983 39.0909C19.3506 39.0909 20.6471 38.5829 21.6017 37.6731Z" fill="#F8FBFD"/>
</svg>
