<svg width="430" height="519" viewBox="0 0 430 519" fill="none" xmlns="http://www.w3.org/2000/svg">
<path d="M338.316 75.817C384.546 118.532 425.893 162.878 429.475 209.832C433.056 256.786 398.546 306.349 370.221 362.759C341.572 419.495 318.782 482.427 275.156 506.556C231.53 530.359 166.742 515.36 118.559 484.709C70.3747 454.059 38.7947 408.083 7.21476 359.172C-24.0396 310.262 -54.9685 258.743 -41.9458 219.94C-28.9231 181.138 28.051 155.704 74.2815 112.989C120.512 70.2738 155.673 10.6029 198.648 1.47296C241.623 -7.98308 292.411 33.1018 338.316 75.817Z" fill="url(#paint0_linear_466_638)" fill-opacity="0.13"/>
<defs>
<linearGradient id="paint0_linear_466_638" x1="192.366" y1="0.103027" x2="192.366" y2="518.289" gradientUnits="userSpaceOnUse">
<stop stop-color="white"/>
<stop offset="1" stop-color="white" stop-opacity="0"/>
</linearGradient>
</defs>
</svg>
