<svg width="600" height="552" viewBox="0 0 600 552" fill="none" xmlns="http://www.w3.org/2000/svg">
<path d="M420.545 101.033C473.412 126.851 535.421 159.819 570.003 218.207C604.585 276.595 611.74 360.007 574.376 411.642C537.011 462.881 455.127 481.947 377.616 507.367C300.104 532.788 227.363 564.564 172.111 545.498C116.859 526.433 79.0973 456.923 50.0802 390.194C21.4606 323.464 1.58583 259.913 0.790838 188.417C-0.00415208 116.921 18.6781 37.8786 68.7624 11.6635C118.449 -14.9488 199.936 11.6635 261.945 34.3038C324.352 56.9441 367.679 75.2152 420.545 101.033Z" fill="url(#paint0_linear_466_639)" fill-opacity="0.13"/>
<defs>
<linearGradient id="paint0_linear_466_639" x1="300.054" y1="0.538086" x2="300.054" y2="551.314" gradientUnits="userSpaceOnUse">
<stop stop-color="white"/>
<stop offset="1" stop-color="white" stop-opacity="0"/>
</linearGradient>
</defs>
</svg>
