<svg width="435" height="539" viewBox="0 0 435 539" fill="none" xmlns="http://www.w3.org/2000/svg">
<path d="M433.231 246.021C439.838 285.72 417.188 330.161 391.595 381.631C366.001 433.101 337.464 491.147 288.264 519.01C239.291 546.646 169.881 544.327 112.475 516.84C55.2959 489.58 9.89326 437.377 1.68755 382.48C-6.29118 327.81 23.1537 270.219 40.1218 210.577C57.3166 150.708 62.4883 88.7895 96.7091 48.6669C130.703 8.31734 193.519 -10.463 241.165 8.17122C289.038 26.5788 321.742 82.401 355.798 127.337C390.308 172.273 426.398 206.549 433.231 246.021Z" fill="url(#paint0_linear_466_640)" fill-opacity="0.13"/>
<defs>
<linearGradient id="paint0_linear_466_640" x1="363.541" y1="116.145" x2="28.623" y2="451.063" gradientUnits="userSpaceOnUse">
<stop stop-color="white"/>
<stop offset="1" stop-color="white" stop-opacity="0"/>
</linearGradient>
</defs>
</svg>
