<svg width="88" height="104" viewBox="0 0 88 104" fill="none" xmlns="http://www.w3.org/2000/svg">
<path d="M25.1429 0C28.6196 0 31.4286 2.90469 31.4286 6.5V13H56.5714V6.5C56.5714 2.90469 59.3804 0 62.8571 0C66.3339 0 69.1429 2.90469 69.1429 6.5V13H78.5714C83.7768 13 88 17.3672 88 22.75V32.5H0V22.75C0 17.3672 4.22321 13 9.42857 13H18.8571V6.5C18.8571 2.90469 21.6661 0 25.1429 0ZM0 39H88V94.25C88 99.6328 83.7768 104 78.5714 104H9.42857C4.22321 104 0 99.6328 0 94.25V39ZM12.5714 55.25V61.75C12.5714 63.5375 13.9857 65 15.7143 65H22C23.7286 65 25.1429 63.5375 25.1429 61.75V55.25C25.1429 53.4625 23.7286 52 22 52H15.7143C13.9857 52 12.5714 53.4625 12.5714 55.25ZM37.7143 55.25V61.75C37.7143 63.5375 39.1286 65 40.8571 65H47.1429C48.8714 65 50.2857 63.5375 50.2857 61.75V55.25C50.2857 53.4625 48.8714 52 47.1429 52H40.8571C39.1286 52 37.7143 53.4625 37.7143 55.25ZM66 52C64.2714 52 62.8571 53.4625 62.8571 55.25V61.75C62.8571 63.5375 64.2714 65 66 65H72.2857C74.0143 65 75.4286 63.5375 75.4286 61.75V55.25C75.4286 53.4625 74.0143 52 72.2857 52H66ZM12.5714 81.25V87.75C12.5714 89.5375 13.9857 91 15.7143 91H22C23.7286 91 25.1429 89.5375 25.1429 87.75V81.25C25.1429 79.4625 23.7286 78 22 78H15.7143C13.9857 78 12.5714 79.4625 12.5714 81.25ZM40.8571 78C39.1286 78 37.7143 79.4625 37.7143 81.25V87.75C37.7143 89.5375 39.1286 91 40.8571 91H47.1429C48.8714 91 50.2857 89.5375 50.2857 87.75V81.25C50.2857 79.4625 48.8714 78 47.1429 78H40.8571ZM62.8571 81.25V87.75C62.8571 89.5375 64.2714 91 66 91H72.2857C74.0143 91 75.4286 89.5375 75.4286 87.75V81.25C75.4286 79.4625 74.0143 78 72.2857 78H66C64.2714 78 62.8571 79.4625 62.8571 81.25Z" fill="#0D6680"/>
</svg>
