<svg width="94" height="94" viewBox="0 0 94 94" fill="none" xmlns="http://www.w3.org/2000/svg">
<path d="M47 0C59.4652 0 71.4198 4.95177 80.234 13.766C89.0482 22.5802 94 34.5348 94 47C94 59.4652 89.0482 71.4198 80.234 80.234C71.4198 89.0482 59.4652 94 47 94C34.5348 94 22.5802 89.0482 13.766 80.234C4.95177 71.4198 0 59.4652 0 47C0 34.5348 4.95177 22.5802 13.766 13.766C22.5802 4.95177 34.5348 0 47 0ZM42.5938 22.0312V47C42.5938 48.4688 43.3281 49.8457 44.5582 50.6719L62.1832 62.4219C64.2027 63.7805 66.9383 63.2297 68.2969 61.1918C69.6555 59.1539 69.1047 56.4367 67.0668 55.0781L51.4062 44.65V22.0312C51.4062 19.5895 49.4418 17.625 47 17.625C44.5582 17.625 42.5938 19.5895 42.5938 22.0312Z" fill="#0D6680"/>
</svg>
