<svg width="576" height="384" viewBox="0 0 576 384" fill="none" xmlns="http://www.w3.org/2000/svg">
<path d="M576 64C576 28.7 547.3 0 512 0H205.3C188.3 0 172 6.7 160 18.7L9.4 169.4C3.4 175.4 0 183.5 0 192C0 200.5 3.4 208.6 9.4 214.6L160 365.3C172 377.3 188.3 384 205.3 384H512C547.3 384 576 355.3 576 320V64ZM271 111C280.4 101.6 295.6 101.6 304.9 111L351.9 158L398.9 111C408.3 101.6 423.5 101.6 432.8 111C442.1 120.4 442.2 135.6 432.8 144.9L385.8 191.9L432.8 238.9C442.2 248.3 442.2 263.5 432.8 272.8C423.4 282.1 408.2 282.2 398.9 272.8L351.9 225.8L304.9 272.8C295.5 282.2 280.3 282.2 271 272.8C261.7 263.4 261.6 248.2 271 238.9L318 191.9L271 144.9C261.6 135.5 261.6 120.3 271 111Z" fill="#F8FBFD"/>
</svg>
