<svg width="51" height="51" viewBox="0 0 51 51" fill="none" xmlns="http://www.w3.org/2000/svg">
<path d="M36.167 1.86956L31.3406 6.69553L44.3039 19.6578L49.1303 14.8319C51.6232 12.3391 51.6232 8.30086 49.1303 5.80811L45.2014 1.86956C42.7085 -0.623188 38.6699 -0.623188 36.1769 1.86956H36.167ZM29.087 8.94898L5.84277 32.2014C4.80571 33.2384 4.04785 34.5246 3.62904 35.9305L0.0990267 47.9257C-0.150268 48.7732 0.0790832 49.6805 0.697334 50.2987C1.31558 50.917 2.22302 51.1463 3.06065 50.907L15.0567 47.3772C16.4627 46.9585 17.7491 46.2007 18.7861 45.1637L42.0503 21.9113L29.087 8.94898Z" fill="#0D6680"/>
</svg>
