<svg width="384" height="337" viewBox="0 0 384 337" fill="none" xmlns="http://www.w3.org/2000/svg">
<g clip-path="url(#clip0_525_391)">
<path d="M0.000234375 227.59C2.59023 222.74 6.63023 221.41 12.0502 221.46C35.7502 221.67 59.4602 221.5 83.1602 221.47C84.5402 220.39 86.1802 220.4 87.8102 220.4C141.08 220.38 194.35 220.36 247.63 220.41C248.5 220.41 249.38 220.45 250.23 220.58C253.4 221.11 255.52 223.26 257.42 225.57C269.57 240.35 281.66 255.17 293.67 270.06C294.67 271.3 297.12 272.87 294.21 274.79C286.73 275.51 279.24 275.02 271.76 275.06C254.55 275.09 237.33 275.04 220.11 275.1C217.81 275.11 214.95 274.43 213.68 276.97C212.39 279.55 214.78 281.36 216.15 283.16C221.36 290 226.68 296.76 231.71 303.73C233.98 306.88 236.79 308.12 240.62 308.09C255.09 307.98 269.56 308.04 284.04 308.05C286.03 308.05 288.04 307.96 290.01 308.35C298.56 309.29 307.12 308.81 315.68 308.54C317.54 308.48 318.83 307.2 319.98 305.85C321.48 304.48 322.52 305.58 323.4 306.62C330.62 315.17 337.65 323.88 344.63 332.62C345.35 333.52 346.84 334.75 344.83 335.99C343.13 336.57 341.37 336.42 339.63 336.42C256.59 336.43 173.54 336.4 90.5002 336.49C84.8802 336.5 80.8202 334.54 77.3102 330.2C53.0602 300.25 28.7102 270.38 4.31023 240.56C2.41023 238.23 0.640234 235.86 -0.00976562 232.84C0.000234375 231.08 0.000234375 229.34 0.000234375 227.59Z" fill="#9DAAB0"/>
<path d="M348.61 110.13C357.52 110.09 366.44 110.05 375.35 110C379.68 109.98 381.92 112.83 383.85 116.12C383.85 188.94 383.85 261.77 383.85 334.59C381.99 334.94 381.21 333.5 380.3 332.37C372.14 322.16 363.75 312.12 355.5 301.98C354.35 300.57 353.6 299.07 353.56 297.24C353.33 294.99 353.4 292.75 353.4 290.5C353.4 235.39 353.37 180.28 353.44 125.17C353.45 120.05 353.3 115.16 348.97 111.53C348.59 111.19 348.54 110.64 348.61 110.13Z" fill="#0A4B5E"/>
<path d="M354.51 298.86C361.77 307.88 368.97 316.94 376.3 325.9C378.72 328.86 380.7 332.23 383.84 334.58C383.84 334.83 383.84 335.08 383.84 335.33C371.1 335.67 358.35 335.61 345.61 335.31C337.86 325.72 330.11 316.13 322.34 306.56C321.96 306.09 321.4 305.77 320.92 305.39C318.52 304.08 317.52 301.54 315.98 299.53C310.94 292.95 305.68 286.53 300.92 279.74C299.34 277.48 296.83 276.23 295.41 273.9C285.66 261.84 275.97 249.74 266.14 237.75C261.59 232.2 257.67 226.08 251.86 221.65C253.17 220.3 254.88 220.67 256.45 220.67C265.81 220.63 275.18 220.89 284.52 220.56C289.73 220.38 293.3 222.45 296.36 226.3C303.41 235.18 310.65 243.91 317.8 252.7C328.8 266.23 339.84 279.74 350.88 293.24C352.32 294.97 353.75 296.7 354.51 298.86Z" fill="#869196"/>
<path d="M354.51 298.86C347.05 289.84 339.56 280.85 332.15 271.79C319.69 256.55 307.27 241.28 294.88 225.99C292.35 222.87 289.38 221.36 285.2 221.45C274.09 221.7 262.97 221.59 251.86 221.63C237.9 221.61 223.93 221.57 209.97 221.57C169.2 221.56 128.42 221.57 87.6499 221.56C86.1599 221.56 84.6599 221.5 83.1699 221.46C83.2099 211.77 83.2499 202.09 83.2899 192.4C85.1099 190.87 87.3099 191.31 89.3899 191.3C111.58 191.27 133.77 191.3 155.97 191.26C158.89 191.26 162.31 191.94 163.78 188.39C165.25 184.84 162.57 182.62 160.54 180.28C157.05 176.26 152.41 173.3 149.91 168.36C149.09 166.74 147.22 167.37 145.8 167.37C129.22 167.34 112.64 167.36 96.0499 167.35C94.4299 167.35 92.7799 167.51 91.2399 166.93C90.5299 166.66 89.3599 166.43 90.2299 165.16C91.7999 164.12 93.5799 164.29 95.3099 164.29C108.04 164.28 120.77 164.23 133.49 164.3C141.84 164.54 150.21 164.47 158.56 164.34C164.07 164.26 165.91 160.44 162.93 155.7C162.4 154.86 161.74 154.09 161.63 153.05C162.15 150.7 163.58 148.76 164.62 146.65C169.51 136.69 172.4 126.27 173.02 115.14C173.33 109.52 173.03 104.01 172.38 98.4602C172.83 92.3302 172.76 86.1302 174.71 80.1902C182.69 80.1802 190.67 80.2202 198.66 80.1502C201.45 80.1302 203.78 81.0202 205.72 82.9702C211.96 89.2302 218.19 95.5102 224.43 101.77C225 102.76 224.64 103.72 224.26 104.63C221.99 110.16 221.63 115.69 224.12 121.26C224.42 121.94 224.57 122.68 224.46 123.44C217.83 134.56 227.25 151.26 241.84 151.85C257.21 152.47 266.95 137.37 262.57 125.36C262.23 124.43 261.97 123.46 261.93 122.45C263.27 118.42 263.08 114.04 264.66 110.06C292.64 110.07 320.63 110.08 348.61 110.09C353.05 112.8 354.7 116.66 354.68 121.92C354.56 179.15 354.6 236.37 354.6 293.6C354.6 295.37 354.54 297.12 354.51 298.86Z" fill="#0D6680"/>
<path d="M134.15 165.52C119.45 165.58 104.75 165.63 90.0499 165.69C87.6999 167.09 85.3899 166.94 83.1199 165.52C72.7199 163.9 62.5399 161.52 53.2399 156.41C27.0999 142.06 11.7599 120.22 8.91991 90.46C4.84991 47.67 33.7299 9.63996 75.8599 1.57996C77.0699 1.34996 78.2099 0.639961 79.5099 1.01996C114.04 6.53996 142.28 36.8 146.51 71.45C149.28 94.15 144.16 114.74 130.48 133.15C124.67 140.97 124.8 142.94 131.68 150C132.99 151.34 134.36 152.62 135.64 153.98C139.89 158.51 139.39 162.33 134.15 165.52Z" fill="#9DAAB0"/>
<path d="M134.15 165.52C134.7 164.85 135.24 164.17 135.81 163.51C138.28 160.64 138.25 158.11 135.63 155.33C132.73 152.26 129.56 149.46 127 146.04C124.68 142.92 124.39 139.88 126.64 136.79C130.89 130.97 135.08 125.14 138.22 118.6C145.28 103.86 147.47 88.4502 145.54 72.2602C143.09 51.6902 133.73 34.7702 118.61 21.0002C108.53 11.8202 96.5595 5.79023 83.3095 2.40023C81.9895 2.06023 80.6395 1.86023 79.5195 1.01023C94.9895 -1.30977 110.05 0.220225 124.3 6.75023C153.61 20.1802 170.3 42.9402 173.98 75.0302C174.18 76.7602 174.46 78.4802 174.7 80.2002C174.81 86.4902 173.7 92.6702 173.2 98.9102C173.28 104.93 170.91 110.34 168.66 115.69C165.27 123.76 160.64 131.13 154.81 137.72C151.65 141.29 151.82 141.55 155.08 145.05C157.42 147.57 160.54 149.42 161.88 152.81C162.69 153.73 163.54 154.63 164.31 155.59C165.83 157.48 166.17 159.61 165.22 161.84C164.22 164.19 162.5 165.62 159.8 165.61C151.26 165.58 142.71 165.55 134.15 165.52Z" fill="#869196"/>
<path d="M83.1201 165.51C85.4301 165.57 87.7401 165.63 90.0501 165.68C91.4001 166.67 92.9601 166.19 94.4101 166.2C113.39 166.24 132.38 166.22 151.86 166.22C150 168.5 151.48 169.7 152.82 171.01C156.2 174.33 159.64 177.61 162.86 181.08C164.82 183.19 166.54 185.61 165.2 188.8C164.05 191.55 162 192.49 158.98 192.48C133.75 192.38 108.51 192.41 83.2801 192.4C83.2301 183.45 83.1801 174.48 83.1201 165.51Z" fill="#0A4B5E"/>
<path d="M264.66 110.1C264.98 114.55 264.27 118.83 262.48 122.92C262.47 126.11 260.35 128.21 258.25 130.01C251.78 135.55 244.3 137.21 236.05 134.84C234.52 134.4 232.94 133.9 232.21 132.22C232.47 130.54 234 130.35 235.17 129.72C241.68 126.19 245.58 120.93 245.67 113.37C245.77 105.8 242.17 100.4 235.45 96.96C234.34 96.39 232.65 96.38 232.52 94.56C244.41 87.63 259.86 93.92 263.78 107.27C264.06 108.21 264.36 109.15 264.66 110.1Z" fill="#C5C8C9"/>
<path d="M20.88 169.2C23.52 169.09 25.24 171.46 27.01 173.47C28.87 175.58 30.3 176.05 32.18 173.55C33.14 172.28 34.39 171.14 35.71 170.23C38.39 168.36 41.66 168.88 43.74 171.34C45.92 173.92 45.21 176.38 43.33 178.76C41.8 180.69 38.62 181.94 38.69 184.29C38.76 186.59 41.86 187.88 43.42 189.79C45.53 192.37 45.52 195.95 43.41 197.93C40.98 200.22 37.73 200.16 35.02 197.82C33.16 196.2 31.69 192.93 29.57 193.17C27.59 193.4 25.91 196.25 24.1 197.96C21.76 200.16 19.31 200.49 16.77 198.33C14.26 196.19 13.55 193.75 15.39 190.74C16.53 188.89 18.1 187.48 19.64 186.05C21.1 184.69 21.03 183.67 19.59 182.39C18.19 181.15 16.84 179.83 15.66 178.39C14.23 176.64 13.76 174.67 14.89 172.49C16.05 170.25 17.85 169.22 20.88 169.2Z" fill="#9DAAB0"/>
<path d="M232.52 94.5601C237.36 96.6601 241.89 99.0701 244.43 104.13C249.87 114.96 245.19 126.97 233.75 131.24C233.28 131.41 232.85 131.67 232.4 131.9C228.6 131.37 224.74 127.57 224 123.64C220.16 116.29 220.76 109.02 224.42 101.81C226.84 99.0701 229.01 96.0601 232.52 94.5601Z" fill="#F0F4F7"/>
<path d="M264.46 52.4998C261.96 52.3898 260.11 51.3698 259.11 49.3398C257.99 47.0598 258.05 44.5198 260 42.7898C262.58 40.4898 263.3 38.8698 260.19 36.2498C257.63 34.0898 257.91 30.4298 260.05 28.2598C262.43 25.8398 265.77 25.6298 268.31 28.3498C270.62 30.8198 272.06 30.9598 274.41 28.3798C276.93 25.6198 280.27 25.8198 282.67 28.2198C284.92 30.4698 285.07 34.0998 282.35 36.5098C279.67 38.8798 280.17 40.2898 282.48 42.4898C285.07 44.9498 284.86 48.5698 282.53 50.7898C280.07 53.1298 276.88 53.2198 274.29 50.3898C272.06 47.9598 270.51 47.7498 268.5 50.4198C267.52 51.7598 265.97 52.3798 264.46 52.4998Z" fill="#0D6680"/>
<path d="M310.44 55.5801C318.1 51.6101 326.55 53.3401 331.88 59.9801C336.87 66.1901 336.76 74.9801 331.62 81.3201C326.47 87.6801 317.92 89.3101 310.43 85.3801C310.29 83.8101 311.72 83.7601 312.58 83.2501C323.09 77.0501 323.33 64.8401 313.07 58.2701C312.01 57.6001 310.35 57.4101 310.44 55.5801Z" fill="#C5C8C9"/>
<path d="M310.44 55.5801C314.04 57.7701 317.77 59.7901 319.8 63.7901C323.59 71.2101 320.62 80.1801 313.03 84.0601C312.16 84.5001 311.29 84.9401 310.42 85.3801C298.32 77.8201 298.32 63.0801 310.44 55.5801Z" fill="#F0F4F7"/>
<path d="M290.02 309.21C272.92 309.23 255.83 309.24 238.73 309.3C236.02 309.31 233.88 308.28 232.27 306.17C225.92 297.86 219.58 289.55 213.28 281.2C212.24 279.82 211.16 278.34 212.11 276.42C213.07 274.47 214.76 273.97 216.76 273.97C234.98 274.02 253.2 274.05 271.42 274.09C273.5 274.75 275.05 276.01 276.42 277.76C282.47 285.52 288.23 293.49 294.31 301.22C294.46 301.42 294.62 301.61 294.76 301.82C296.02 303.66 296.82 305.66 295.64 307.75C294.35 310.06 292.15 309.7 290.02 309.21Z" fill="#F8FBFD"/>
<path d="M290.02 309.21C291.96 309.08 294.24 309.53 295.12 307.13C295.95 304.88 294.68 303.18 293.32 301.44C287.25 293.66 281.18 285.87 275.34 277.92C274.19 276.35 272.37 275.71 271.4 274.1C279.4 274.03 287.4 273.96 295.4 273.89C297.74 274.88 299.53 276.47 301.07 278.51C306.96 286.32 312.95 294.06 318.86 301.86C319.67 302.93 320.23 304.2 320.91 305.38C320.48 307.69 319.22 309.53 316.83 309.58C307.9 309.78 298.94 310.44 290.02 309.21Z" fill="#C5C8C9"/>
<path d="M174.31 303.83C179.92 303.83 185.53 303.79 191.14 303.84C195.15 303.88 197.68 306.07 197.75 309.41C197.82 312.73 195.24 315.12 191.31 315.14C179.96 315.19 168.62 315.19 157.27 315.14C153.27 315.13 150.74 312.88 150.7 309.55C150.66 306.11 153.29 303.86 157.48 303.83C163.09 303.81 168.7 303.83 174.31 303.83Z" fill="#F8FBFD"/>
<path d="M171.46 296.08C168.85 296.08 166.2 296.33 163.63 296.02C160.19 295.6 158.04 292.98 158.19 290.02C158.36 286.8 160.8 284.56 164.49 284.49C169.1 284.4 173.71 284.4 178.32 284.49C182.16 284.57 184.43 286.68 184.54 290.01C184.66 293.58 182.51 295.91 178.55 296.21C176.2 296.39 173.82 296.24 171.45 296.24C171.46 296.18 171.46 296.13 171.46 296.08Z" fill="#F8FBFD"/>
<path d="M224 123.63C226.15 127.04 228.69 130.06 232.4 131.89C241.47 137.57 253.41 135.17 260.16 126.28C260.98 125.2 261.71 124.04 262.48 122.92C268.94 136.71 258.84 152.45 243.71 152.88C232.07 153.21 222.38 144.8 221.31 132.61C221.03 129.52 220.65 125.87 224 123.63Z" fill="#0A4B5E"/>
<path d="M161.88 152.82C158.68 149.7 155.56 146.49 152.23 143.51C150.46 141.92 150.74 140.97 152.24 139.34C161.87 128.81 168.61 116.68 172.1 102.79C172.42 101.5 172.13 99.9999 173.2 98.9199C174.85 102.39 174.48 106.32 174.43 109.79C174.2 124.56 170.79 138.69 163.23 151.6C162.93 152.09 162.33 152.41 161.88 152.82Z" fill="#5B5555"/>
<path d="M114 117.85C111.66 117.95 108.92 116.69 106.6 114.37C102.28 110.05 97.88 105.81 93.65 101.39C92.02 99.6898 90.99 99.4199 89.23 101.3C85.14 105.66 80.83 109.83 76.55 114.02C71.41 119.06 64.24 119.23 59.51 114.48C54.89 109.84 55.08 102.88 60.06 97.7999C64.42 93.3499 68.82 88.9198 73.32 84.5998C74.71 83.2598 74.75 82.4598 73.33 81.0998C68.83 76.7798 64.45 72.3498 60.07 67.8998C55.1 62.8498 54.89 55.8698 59.49 51.2198C64.11 46.5598 71.23 46.5698 76.27 51.4098C80.68 55.6398 85.03 59.9398 89.23 64.3798C90.98 66.2398 92.02 66.0398 93.67 64.3098C97.79 59.9698 102.08 55.7898 106.35 51.5998C111.28 46.7698 118.53 46.5598 123.14 51.0298C127.83 55.5798 127.78 62.7098 122.88 67.7598C118.54 72.2398 114.14 76.6598 109.62 80.9598C108.06 82.4398 108.12 83.2898 109.64 84.7398C114.24 89.1398 118.78 93.5998 123.14 98.2198C126.71 101.99 127.68 106.46 125.42 111.3C123.38 115.71 119.82 117.83 114 117.85Z" fill="#F8FBFD"/>
</g>
<defs>
<clipPath id="clip0_525_391">
<rect width="383.84" height="336.49" fill="white"/>
</clipPath>
</defs>
</svg>
