<svg width="78" height="75" viewBox="0 0 78 75" fill="none" xmlns="http://www.w3.org/2000/svg">
<path d="M0.0546875 75.0001V0.744141H30.0067C36.5934 0.744141 41.7934 1.88814 45.6067 4.17614C49.4894 6.46414 52.2627 9.65348 53.9267 13.7441C55.66 17.8348 56.5267 22.6535 56.5267 28.2001V56.0721H42.9027V28.5121C42.9027 24.4215 42.348 21.1628 41.2387 18.7361C40.1294 16.3095 38.4654 14.5761 36.2467 13.5361C34.0974 12.4268 31.3587 11.8721 28.0307 11.8721H13.6787V75.0001H0.0546875ZM21.4787 19.6721H35.1027V63.8721H49.4547C52.7827 63.8721 55.5214 63.3521 57.6707 62.3121C59.8894 61.2028 61.5534 59.4348 62.6627 57.0081C63.772 54.5815 64.3267 51.3228 64.3267 47.2321V0.744141H77.9507V47.5441C77.9507 53.0215 77.0494 57.8401 75.2467 62.0001C73.5134 66.0908 70.6707 69.2801 66.7187 71.5681C62.7667 73.8561 57.4974 75.0001 50.9107 75.0001H21.4787V19.6721Z" fill="#0D6680"/>
</svg>
