<svg width="43" height="26" viewBox="0 0 43 26" fill="none" xmlns="http://www.w3.org/2000/svg">
<path d="M33.5206 25.2045C38.7142 25.2227 42.7791 21.0344 42.6056 15.8437C42.4521 11.2502 38.9982 7.32027 34.4413 6.55104L34.3165 6.52764C33.1749 6.33533 32.1297 7.09869 31.9836 8.22805C31.8375 9.35741 32.6364 10.435 33.7732 10.6227L33.898 10.6461C36.44 11.0775 38.3651 13.2659 38.446 15.8245C38.5427 18.7184 36.277 21.0529 33.3815 21.0427L23.0591 21.0157C20.1636 21.0056 17.7413 18.6547 17.6446 15.7608C17.559 13.1976 19.3383 11.0222 21.8475 10.613L21.9708 10.5905C23.0998 10.4061 23.8268 9.33392 23.6007 8.20785C23.3747 7.08178 22.2734 6.3063 21.1537 6.49068L21.0304 6.51322C16.5235 7.24148 13.3315 11.1481 13.485 15.7416C13.6585 20.9323 18.0044 25.1501 23.1979 25.1683L33.5206 25.2045ZM9.88146 0.18176C4.68792 0.163553 0.623009 4.35187 0.796479 9.54254C0.949994 14.136 4.40388 18.066 8.96076 18.8352L9.08562 18.8586C10.2271 19.0509 11.2724 18.2875 11.4185 17.1582C11.5645 16.0288 10.7657 14.9513 9.6289 14.7636L9.50404 14.7402C6.96209 14.3087 5.03697 12.1203 4.95605 9.56171C4.86378 6.66322 7.12947 4.32875 10.025 4.3389L20.343 4.37048C23.2385 4.38063 25.6607 6.73154 25.7575 9.62545C25.8431 12.1886 24.0638 14.3641 21.5501 14.7778L21.4268 14.8003C20.2979 14.9847 19.5708 16.0569 19.7969 17.183C20.0229 18.309 21.1242 19.0845 22.2439 18.9001L22.3673 18.8776C26.8785 18.1447 30.0705 14.2381 29.917 9.64462C29.7436 4.45396 25.3977 0.236155 20.2042 0.217948L9.88146 0.18176Z" fill="#171C1F"/>
</svg>
