<svg width="42" height="26" viewBox="0 0 42 26" fill="none" xmlns="http://www.w3.org/2000/svg">
<path d="M32.8199 25.5111C38.0135 25.5293 42.0784 21.341 41.9049 16.1503C41.7514 11.5568 38.2975 7.62691 33.7406 6.85768L33.6158 6.83428C32.4743 6.64197 31.429 7.40533 31.2829 8.53469C31.1369 9.66405 31.9357 10.7416 33.0725 10.9293L33.1974 10.9527C35.7393 11.3842 37.6644 13.5726 37.7453 16.1312C37.8421 19.0251 35.5764 21.3595 32.6809 21.3494L22.3584 21.3224C19.4629 21.3122 17.0407 18.9613 16.9439 16.0674C16.8583 13.5042 18.6376 11.3288 21.1468 10.9197L21.2702 10.8971C22.3991 10.7128 23.1261 9.64056 22.9001 8.51449C22.674 7.38842 21.5727 6.61294 20.453 6.79732L20.3297 6.81986C15.8228 7.54812 12.6309 11.4547 12.7844 16.0482C12.9578 21.2389 17.3037 25.4567 22.4972 25.4749L32.8199 25.5111ZM9.18077 0.488401C3.98724 0.470194 -0.0776747 4.65851 0.0957958 9.84918C0.249311 14.4427 3.7032 18.3726 8.26008 19.1418L8.38494 19.1652C9.52646 19.3575 10.5717 18.5942 10.7178 17.4648C10.8639 16.3355 10.065 15.2579 8.92822 15.0702L8.80336 15.0468C6.26141 14.6153 4.33628 12.4269 4.25537 9.86835C4.1631 6.96987 6.42879 4.63539 9.3243 4.64554L19.6423 4.67712C22.5378 4.68727 24.9601 7.03818 25.0568 9.93209C25.1424 12.4953 23.3631 14.6707 20.8494 15.0844L20.7261 15.107C19.5972 15.2913 18.8702 16.3635 19.0962 17.4896C19.3223 18.6157 20.4235 19.3911 21.5433 19.2068L21.6666 19.1842C26.1779 18.4514 29.3699 14.5448 29.2163 9.95127C29.0429 4.7606 24.697 0.542796 19.5035 0.524589L9.18077 0.488401Z" fill="#9DAAB0"/>
</svg>
