<svg width="68" height="99" viewBox="0 0 68 99" fill="none" xmlns="http://www.w3.org/2000/svg">
<path d="M67.7487 49.3909C67.4214 66.8449 62.0166 82.5684 51.6087 96.5762C49.6451 99.2142 47.3394 99.6902 45.0386 98.0291C42.5841 96.2589 42.2569 93.6755 44.2552 90.9483C52.5111 79.6924 57.43 67.1523 58.2085 53.1941C59.1307 36.6524 54.1276 21.8066 44.5229 8.4235C42.6139 5.76573 42.4602 3.4253 44.1163 1.74436C46.551 -0.720028 49.3624 -0.591106 51.4847 2.24517C61.9174 16.2233 67.3867 31.9269 67.7487 49.3909Z" fill="#F8FBFD"/>
<path d="M49.9269 49.8126C49.6641 63.037 45.4147 75.5672 37.2728 86.7636C34.8133 90.1453 32.463 90.5271 29.8449 88.2561C27.6383 86.3421 27.6879 84.1703 29.9242 81.0761C35.329 73.5838 38.7901 65.2882 40.0247 56.1099C41.904 42.112 38.2496 29.4975 30.3953 17.9491C29.8399 17.1359 29.2647 16.3277 28.8135 15.455C27.6532 13.1988 28.1689 11.3741 30.4052 9.68819C32.2597 8.28989 34.3324 8.25518 35.7406 9.99066C38.0116 12.7873 40.1438 15.7624 41.8941 18.9061C47.1055 28.2876 49.7782 38.413 49.9269 49.8126Z" fill="#F8FBFD"/>
<path d="M32.6726 48.9342C32.7222 60.8396 29.3305 70.0129 24.0001 78.5614C22.6018 80.8027 20.0878 81.3481 17.9557 80.168C15.5756 78.854 14.8417 76.4392 16.0417 73.826C17.9309 69.7253 20.3159 65.7783 21.6299 61.4991C25.4034 49.2317 22.7407 37.9213 15.7045 27.3993C14.7822 26.0209 13.9541 23.9234 14.3508 22.5053C14.7376 21.102 16.5524 19.7483 18.0548 19.0938C19.9292 18.2756 21.4911 19.6541 22.6266 21.1466C28.8049 29.2538 32.4792 40.0535 32.6726 48.9342Z" fill="#F8FBFD"/>
<path d="M6.40191 51.1362C6.4515 45.9347 4.89948 41.3183 2.23675 37.0292C1.76073 36.2606 1.23513 35.5169 0.803735 34.7235C-0.644156 32.0905 -0.128469 29.9336 2.29129 28.3468C4.43834 26.9386 6.81843 27.4642 8.56383 29.7253C17.3652 41.1448 18.1883 57.3641 10.5919 69.6861C9.01506 72.2447 6.61513 73.0777 4.31437 71.8629C1.68139 70.4745 0.917781 67.8514 2.61856 64.8862C5.09286 60.5723 6.54075 56.0353 6.40191 51.1362Z" fill="#F8FBFD"/>
</svg>
