<svg width="513" height="513" viewBox="0 0 513 513" fill="none" xmlns="http://www.w3.org/2000/svg">
<path d="M499.1 5.60004C509.2 12.6 514.5 24.7 512.6 36.8L448.6 452.8C447.1 462.5 441.2 471 432.6 475.8C424 480.6 413.7 481.2 404.6 477.4L285 427.7L216.5 501.8C207.6 511.5 193.6 514.7 181.3 509.9C169 505.1 161 493.2 161 480V396.4C161 392.4 162.5 388.6 165.2 385.6L332.8 202.8C338.6 196.5 338.4 186.8 332.4 180.8C326.4 174.8 316.7 174.4 310.4 180.1L107 360.8L18.7002 316.6C8.10016 311.3 1.30016 300.7 1.00016 288.9C0.700162 277.1 6.90016 266.1 17.1002 260.2L465.1 4.20004C475.8 -1.89996 489 -1.29996 499.1 5.60004Z" fill="#F8FBFD"/>
</svg>
