<svg width="387" height="74" viewBox="0 0 387 74" fill="none" xmlns="http://www.w3.org/2000/svg">
<path d="M29.388 39.108L34.558 39.39C35.874 39.39 36.908 39.3587 37.66 39.296C39.352 37.228 41.2947 34.8467 43.488 32.152C47.6867 27.1387 49.974 24.3813 50.35 23.88C51.854 21.7493 53.264 20.684 54.58 20.684C55.2693 20.684 55.896 20.9033 56.46 21.342C57.024 21.7807 57.306 22.4387 57.306 23.316C57.306 24.1307 53.6087 29.0813 46.214 38.168C54.1727 36.6013 61.3167 34.126 67.646 30.742C73.9753 27.358 77.14 23.786 77.14 20.026C77.14 18.4593 73.8813 17.676 67.364 17.676C60.9093 17.676 53.6713 18.522 45.65 20.214C37.6287 21.906 30.704 23.974 24.876 26.418C19.048 28.862 16.134 30.9927 16.134 32.81C16.134 32.998 16.3533 33.092 16.792 33.092C17.2933 33.092 18.6407 32.716 20.834 31.964C23.0273 31.1493 24.5 30.742 25.252 30.742C26.004 30.742 26.474 30.9927 26.662 31.494C26.662 33.0607 24.9073 34.7213 21.398 36.476C17.9513 38.168 14.5673 39.014 11.246 39.014C7.92467 39.014 5.26133 38.1993 3.256 36.57C1.31333 34.9407 0.342 32.34 0.342 28.768C0.342 24.0053 3.31867 19.368 9.272 14.856C15.2253 10.2813 22.526 6.678 31.174 4.046C39.822 1.35133 48.1567 0.00399745 56.178 0.00399745C64.1993 0.00399745 70.654 1.53933 75.542 4.60999C80.4927 7.68066 82.968 12.412 82.968 18.804C82.968 21.1227 81.9967 23.6607 80.054 26.418C78.174 29.1127 75.5107 31.776 72.064 34.408C68.6173 36.9773 64.074 39.296 58.434 41.364C52.8567 43.3693 46.778 44.7167 40.198 45.406C33.9313 52.926 29.2627 58.5033 26.192 62.138C23.184 65.71 21.3667 67.872 20.74 68.624C20.176 69.376 19.424 69.752 18.484 69.752C17.544 69.752 16.8233 69.4387 16.322 68.812C15.8833 68.1227 15.664 67.4647 15.664 66.838C15.664 66.1487 15.852 65.5533 16.228 65.052C21.4293 58.848 26.7247 52.4873 32.114 45.97H29.858C28.7927 45.97 27.7587 45.688 26.756 45.124C25.816 44.56 25.346 43.714 25.346 42.586C25.346 41.3953 25.7533 40.518 26.568 39.954C27.4453 39.39 28.3853 39.108 29.388 39.108ZM56.4108 70.034C55.4708 69.1567 55.0008 68.0287 55.0008 66.65C55.0008 62.2633 57.6015 57.2813 62.8028 51.704C68.0668 46.1267 72.9548 42.9307 77.4668 42.116C80.2868 42.116 81.6968 43.7767 81.6968 47.098C81.6968 48.1633 80.2868 50.67 77.4668 54.618C74.6468 58.566 71.4195 62.3573 67.7848 65.992C64.1501 69.6267 61.5808 71.444 60.0768 71.444C58.5728 71.444 57.3508 70.974 56.4108 70.034ZM83.3888 39.108C86.3968 38.7947 88.8721 37.51 90.8148 35.254C92.7575 32.9353 93.7288 30.9613 93.7288 29.332C93.7288 26.7627 92.4441 25.478 89.8748 25.478C88.1201 25.478 86.0521 26.2613 83.6708 27.828C81.2895 29.3947 79.9421 31.682 79.6288 34.69L79.7228 35.724C79.8481 36.476 80.2241 37.228 80.8508 37.98C81.4775 38.732 82.3235 39.108 83.3888 39.108ZM113.801 64.77L116.715 63.642C117.593 63.642 118.031 63.9867 118.031 64.676C118.031 66.3053 116.684 67.8407 113.989 69.282C111.357 70.786 108.819 71.538 106.375 71.538C103.994 71.538 102.145 71.0053 100.829 69.94C99.5135 68.9373 98.8555 67.3707 98.8555 65.24C98.8555 63.1093 100.077 60.4773 102.521 57.344C102.835 57.0307 102.991 56.78 102.991 56.592C102.991 56.3413 102.866 56.216 102.615 56.216C102.365 56.216 102.145 56.2787 101.957 56.404C101.769 56.5293 100.422 57.3753 97.9155 58.942C91.8995 62.7647 87.6068 65.428 85.0375 66.932C83.9721 67.496 82.9695 67.778 82.0295 67.778C81.0895 67.778 80.0555 67.1827 78.9275 65.992C77.7995 64.8013 77.2355 63.6107 77.2355 62.42C77.2355 59.9133 80.7761 55.3387 87.8575 48.696C94.9388 41.9907 99.7328 38.638 102.239 38.638C103.179 38.7633 103.994 39.296 104.683 40.236C105.373 41.176 105.717 42.304 105.717 43.62C105.717 44.8733 105.247 46.252 104.307 47.756C102.929 49.9493 101.801 51.4847 100.923 52.362C100.109 53.1767 99.7015 53.7093 99.7015 53.96C99.7015 54.148 99.7955 54.242 99.9835 54.242C100.171 54.242 100.422 54.148 100.735 53.96C101.111 53.7093 104.088 51.7667 109.665 48.132C115.305 44.4347 118.47 42.398 119.159 42.022C119.849 41.5833 120.601 41.364 121.415 41.364C122.23 41.364 123.295 41.7713 124.611 42.586C125.927 43.338 126.585 44.372 126.585 45.688C126.585 47.004 125.426 48.9467 123.107 51.516C120.851 54.0853 118.564 56.5607 116.245 58.942C113.927 61.3233 112.767 63.0153 112.767 64.018C112.767 64.5193 113.112 64.77 113.801 64.77ZM148.211 65.24C148.211 65.5533 148.43 65.7727 148.869 65.898C149.307 65.898 150.811 65.0207 153.381 63.266C156.013 61.4487 157.485 60.446 157.799 60.258C158.175 60.07 158.519 59.976 158.833 59.976C159.71 59.976 160.149 60.4147 160.149 61.292C160.149 62.1067 157.924 63.9553 153.475 66.838C149.088 69.7207 145.986 71.162 144.169 71.162C143.417 71.162 142.602 70.8487 141.725 70.222C140.91 69.5953 140.503 68.8747 140.503 68.06C140.503 67.1827 140.722 66.2427 141.161 65.24C141.599 64.2373 141.819 63.5793 141.819 63.266C141.819 62.89 141.725 62.702 141.537 62.702C141.349 62.702 141.161 62.7647 140.973 62.89C134.894 67.4647 130.413 69.752 127.531 69.752C125.901 69.752 124.617 69.1567 123.677 67.966C122.737 66.7753 122.173 65.5847 121.985 64.394L121.797 62.608C121.797 60.54 122.58 58.1587 124.147 55.464C125.776 52.7067 127.875 50.106 130.445 47.662C133.077 45.1553 136.273 43.056 140.033 41.364C143.855 39.672 147.741 38.826 151.689 38.826C153.819 38.826 155.793 39.39 157.611 40.518C159.491 41.646 160.431 42.962 160.431 44.466C160.431 45.97 158.958 46.8787 156.013 47.192C153.819 47.6933 150.185 49.5107 145.109 52.644C140.095 55.7147 137.589 58.0647 137.589 59.694C137.589 60.3833 137.933 60.728 138.623 60.728C139.876 60.728 142.821 58.942 147.459 55.37C152.159 51.798 154.979 50.012 155.919 50.012C156.859 50.012 157.329 50.576 157.329 51.704C157.329 52.5187 157.015 53.302 156.389 54.054C155.825 54.7433 155.417 55.2447 155.167 55.558C154.665 56.1847 153.381 57.5947 151.313 59.788C149.245 61.9187 148.211 63.736 148.211 65.24ZM203.327 48.508C204.831 48.508 205.583 49.2287 205.583 50.67C205.583 51.5473 204.549 53.02 202.481 55.088C200.476 57.156 198 59.318 195.055 61.574C192.11 63.7673 188.632 65.71 184.621 67.402C180.61 69.0313 176.694 69.846 172.871 69.846C169.048 69.846 165.852 68.4047 163.283 65.522C160.714 62.5767 159.429 57.9393 159.429 51.61C159.429 45.2807 160.745 39.4527 163.377 34.126C166.009 28.7367 169.362 24.2873 173.435 20.778C177.508 17.206 182.052 14.1667 187.065 11.66C196.653 6.83466 205.99 4.422 215.077 4.422C225.981 4.422 231.433 7.27333 231.433 12.976C231.433 16.548 229.553 20.3707 225.793 24.444C222.033 28.5173 218.962 30.554 216.581 30.554C214.952 30.554 214.137 30.084 214.137 29.144C214.137 28.016 214.576 26.9507 215.453 25.948C218.524 22.8773 220.372 20.9033 220.999 20.026C221.688 19.1487 222.033 18.522 222.033 18.146C222.033 17.77 221.688 17.582 220.999 17.582C218.743 17.582 215.265 19.1487 210.565 22.282C205.865 25.4153 201.165 29.1753 196.465 33.562C191.765 37.9487 187.629 42.7113 184.057 47.85C180.548 52.9887 178.793 57.3127 178.793 60.822C178.793 62.0127 179.451 62.608 180.767 62.608C182.71 62.608 186.814 60.258 193.081 55.558C199.41 50.858 202.826 48.508 203.327 48.508ZM233.073 46.722C233.073 48.414 234.075 49.26 236.081 49.26C237.961 49.26 240.029 48.79 242.285 47.85C244.541 46.91 245.763 46.44 245.951 46.44C246.139 46.44 246.327 46.5967 246.515 46.91C246.765 47.2233 246.891 47.5367 246.891 47.85C246.891 48.5393 245.418 49.448 242.473 50.576C239.59 51.6413 237.491 52.174 236.175 52.174C234.859 52.174 233.919 52.174 233.355 52.174C232.853 52.1113 232.446 52.4247 232.133 53.114C227.495 61.8247 222.889 67.308 218.315 69.564C216.309 70.5667 214.179 71.068 211.923 71.068C209.729 71.068 207.912 70.3473 206.471 68.906C205.092 67.402 204.403 65.052 204.403 61.856C204.403 57.4067 205.844 53.2707 208.727 49.448C211.672 45.5627 214.993 42.6487 218.691 40.706C222.388 38.7633 225.741 37.792 228.749 37.792C233.825 38.356 236.363 39.8913 236.363 42.398C236.363 43.0873 236.175 43.714 235.799 44.278C235.485 44.7793 235.203 45.0927 234.953 45.218C234.765 45.2807 234.514 45.3433 234.201 45.406C233.449 45.594 233.073 46.0327 233.073 46.722ZM225.365 51.046C223.359 52.55 221.385 54.4613 219.443 56.78C217.563 59.0987 216.623 61.01 216.623 62.514C216.623 63.9553 217.03 64.676 217.845 64.676C219.098 64.676 221.385 62.7647 224.707 58.942C228.091 55.0567 229.783 51.8607 229.783 49.354C229.783 48.978 229.532 48.79 229.031 48.79C228.592 48.79 227.37 49.542 225.365 51.046ZM257.041 48.978C252.216 55.4953 249.803 59.9447 249.803 62.326C249.803 63.1407 250.211 63.548 251.025 63.548C253.219 63.548 257.386 61.7933 263.527 58.284C269.669 54.7747 272.959 53.02 273.397 53.02C274.275 53.02 274.713 53.396 274.713 54.148V54.336C274.651 54.712 272.896 56.0907 269.449 58.472C266.003 60.8533 261.71 63.266 256.571 65.71C251.433 68.154 247.14 69.376 243.693 69.376C238.241 69.376 235.515 66.2113 235.515 59.882C235.515 54.1793 238.555 47.5993 244.633 40.142C250.775 32.622 257.95 26.23 266.159 20.966C274.369 15.702 281.356 13.07 287.121 13.07C289.628 13.07 291.445 13.7907 292.573 15.232C293.701 16.6733 294.265 18.0207 294.265 19.274C294.265 21.7807 292.699 24.6947 289.565 28.016C286.495 31.3373 282.86 34.4393 278.661 37.322C274.463 40.142 270.327 42.6487 266.253 44.842C262.243 46.9727 259.172 48.3513 257.041 48.978ZM286.745 20.59C285.743 20.59 283.33 22.2193 279.507 25.478C275.747 28.7367 272.238 32.0267 268.979 35.348L264.091 40.236C263.59 40.7373 263.339 41.1447 263.339 41.458C263.339 41.7087 263.621 41.834 264.185 41.834C266.692 41.834 271.141 38.8573 277.533 32.904C283.925 26.9507 287.121 22.9713 287.121 20.966C287.121 20.7153 286.996 20.59 286.745 20.59ZM293.709 65.24C293.709 65.5533 293.928 65.7727 294.367 65.898C294.805 65.898 296.309 65.0207 298.879 63.266C301.511 61.4487 302.983 60.446 303.297 60.258C303.673 60.07 304.017 59.976 304.331 59.976C305.208 59.976 305.647 60.4147 305.647 61.292C305.647 62.1067 303.422 63.9553 298.973 66.838C294.586 69.7207 291.484 71.162 289.667 71.162C288.915 71.162 288.1 70.8487 287.223 70.222C286.408 69.5953 286.001 68.8747 286.001 68.06C286.001 67.1827 286.22 66.2427 286.659 65.24C287.097 64.2373 287.317 63.5793 287.317 63.266C287.317 62.89 287.223 62.702 287.035 62.702C286.847 62.702 286.659 62.7647 286.471 62.89C280.392 67.4647 275.911 69.752 273.029 69.752C271.399 69.752 270.115 69.1567 269.175 67.966C268.235 66.7753 267.671 65.5847 267.483 64.394L267.295 62.608C267.295 60.54 268.078 58.1587 269.645 55.464C271.274 52.7067 273.373 50.106 275.943 47.662C278.575 45.1553 281.771 43.056 285.531 41.364C289.353 39.672 293.239 38.826 297.187 38.826C299.317 38.826 301.291 39.39 303.109 40.518C304.989 41.646 305.929 42.962 305.929 44.466C305.929 45.97 304.456 46.8787 301.511 47.192C299.317 47.6933 295.683 49.5107 290.607 52.644C285.593 55.7147 283.087 58.0647 283.087 59.694C283.087 60.3833 283.431 60.728 284.121 60.728C285.374 60.728 288.319 58.942 292.957 55.37C297.657 51.798 300.477 50.012 301.417 50.012C302.357 50.012 302.827 50.576 302.827 51.704C302.827 52.5187 302.513 53.302 301.887 54.054C301.323 54.7433 300.915 55.2447 300.665 55.558C300.163 56.1847 298.879 57.5947 296.811 59.788C294.743 61.9187 293.709 63.736 293.709 65.24ZM323.727 62.608C323.727 62.3573 323.57 62.232 323.257 62.232C323.006 62.232 321.377 63.078 318.369 64.77C315.424 66.3993 313.074 67.214 311.319 67.214C309.564 67.214 308.186 66.5873 307.183 65.334C306.18 64.0807 305.679 62.7647 305.679 61.386C305.679 57.3127 307.434 53.302 310.943 49.354C314.515 45.406 318.526 42.3353 322.975 40.142C327.424 37.9487 331.31 36.852 334.631 36.852C336.699 36.852 338.266 37.1027 339.331 37.604C340.396 38.1053 340.992 38.356 341.117 38.356H341.305C341.43 38.356 341.493 38.3247 341.493 38.262C347.07 31.494 353.807 24.1933 361.703 16.36C369.662 8.464 374.832 4.516 377.213 4.516C378.216 4.64133 379.124 5.456 379.939 6.96C380.816 8.464 381.286 10.0933 381.349 11.848C380.973 13.2267 375.74 19.086 365.651 29.426C355.562 39.7033 349.89 45.7507 348.637 47.568C347.446 49.3853 344.219 53.8973 338.955 61.104C333.691 68.3107 330.746 72.196 330.119 72.76C329.492 73.3867 328.678 73.7 327.675 73.7C326.672 73.7 325.576 73.0733 324.385 71.82C323.194 70.6293 322.599 69.4387 322.599 68.248C322.599 67.0573 322.787 65.804 323.163 64.488L323.727 62.608ZM332.939 46.91C331.56 46.91 329.148 48.4453 325.701 51.516C322.317 54.5867 320.625 56.6233 320.625 57.626C320.625 58.19 320.876 58.472 321.377 58.472C323.069 58.472 325.576 56.874 328.897 53.678C332.218 50.4193 333.879 48.3827 333.879 47.568C333.879 47.1293 333.566 46.91 332.939 46.91ZM373.847 65.24C373.847 65.5533 374.067 65.7727 374.505 65.898C374.944 65.898 376.448 65.0207 379.017 63.266C381.649 61.4487 383.122 60.446 383.435 60.258C383.811 60.07 384.156 59.976 384.469 59.976C385.347 59.976 385.785 60.4147 385.785 61.292C385.785 62.1067 383.561 63.9553 379.111 66.838C374.725 69.7207 371.623 71.162 369.805 71.162C369.053 71.162 368.239 70.8487 367.361 70.222C366.547 69.5953 366.139 68.8747 366.139 68.06C366.139 67.1827 366.359 66.2427 366.797 65.24C367.236 64.2373 367.455 63.5793 367.455 63.266C367.455 62.89 367.361 62.702 367.173 62.702C366.985 62.702 366.797 62.7647 366.609 62.89C360.531 67.4647 356.05 69.752 353.167 69.752C351.538 69.752 350.253 69.1567 349.313 67.966C348.373 66.7753 347.809 65.5847 347.621 64.394L347.433 62.608C347.433 60.54 348.217 58.1587 349.783 55.464C351.413 52.7067 353.512 50.106 356.081 47.662C358.713 45.1553 361.909 43.056 365.669 41.364C369.492 39.672 373.377 38.826 377.325 38.826C379.456 38.826 381.43 39.39 383.247 40.518C385.127 41.646 386.067 42.962 386.067 44.466C386.067 45.97 384.595 46.8787 381.649 47.192C379.456 47.6933 375.821 49.5107 370.745 52.644C365.732 55.7147 363.225 58.0647 363.225 59.694C363.225 60.3833 363.57 60.728 364.259 60.728C365.513 60.728 368.458 58.942 373.095 55.37C377.795 51.798 380.615 50.012 381.555 50.012C382.495 50.012 382.965 50.576 382.965 51.704C382.965 52.5187 382.652 53.302 382.025 54.054C381.461 54.7433 381.054 55.2447 380.803 55.558C380.302 56.1847 379.017 57.5947 376.949 59.788C374.881 61.9187 373.847 63.736 373.847 65.24Z" fill="#171C1F"/>
</svg>
