<svg width="512" height="448" viewBox="0 0 512 448" fill="none" xmlns="http://www.w3.org/2000/svg">
<path d="M512 208C512 322.9 397.4 416 256 416C218.9 416 183.7 409.6 151.9 398.1C140 406.8 120.6 418.7 97.6001 428.7C73.6001 439.1 44.7001 448 16.0001 448C9.50011 448 3.70011 444.1 1.20011 438.1C-1.29989 432.1 0.100114 425.3 4.60011 420.7L4.90011 420.4C5.20011 420.1 5.60011 419.7 6.20011 419C7.30011 417.8 9.00011 415.9 11.1001 413.3C15.2001 408.3 20.7001 400.9 26.3001 391.7C36.3001 375.1 45.8001 353.3 47.7001 328.8C17.7001 294.8 0.000114085 253.1 0.000114085 208C0.000114085 93.1 114.6 0 256 0C397.4 0 512 93.1 512 208Z" fill="#0D6680"/>
</svg>
