<svg width="46" height="54" viewBox="0 0 46 54" fill="none" xmlns="http://www.w3.org/2000/svg">
<path d="M13.8821 1.8668L13.1429 3.375H3.28571C1.4683 3.375 0 4.8832 0 6.75C0 8.6168 1.4683 10.125 3.28571 10.125H42.7143C44.5317 10.125 46 8.6168 46 6.75C46 4.8832 44.5317 3.375 42.7143 3.375H32.8571L32.1179 1.8668C31.5634 0.717188 30.4237 0 29.1813 0H16.8188C15.5763 0 14.4366 0.717188 13.8821 1.8668ZM42.7143 13.5H3.28571L5.4625 49.2539C5.62679 51.9223 7.78304 54 10.3808 54H35.6192C38.217 54 40.3732 51.9223 40.5375 49.2539L42.7143 13.5Z" fill="#824E4E"/>
</svg>
