<svg width="193" height="59" viewBox="0 0 193 59" fill="none" xmlns="http://www.w3.org/2000/svg">
<path fill-rule="evenodd" clip-rule="evenodd" d="M77.6484 1.16663L67.924 58.2324H83.471L93.2028 1.16663H77.6484ZM125.727 0C131.757 0 136.586 1.24066 139.667 2.39679L137.559 14.7646L136.166 14.1061C133.295 12.95 129.61 11.8408 124.524 11.9198C118.434 11.9198 115.615 14.4562 115.615 16.8282C115.58 19.5014 118.91 21.2629 124.346 23.9029C133.321 27.9761 137.464 32.9158 137.406 39.4077C137.286 51.2537 126.671 58.9052 110.32 58.9052C103.345 58.8336 96.6268 57.4541 92.9938 55.8604L95.1763 43.0859L97.1813 43.9928C102.29 46.1226 105.597 46.9875 111.822 46.9875C116.294 46.9875 121.09 45.2408 121.128 41.4153C121.158 38.9179 119.123 37.1345 113.068 34.3365C107.168 31.6072 99.3519 27.0325 99.4384 18.8326C99.5311 7.73987 110.357 0 125.727 0ZM167.675 1.16577H179.694L192.284 58.1948H177.851C177.851 58.1948 176.423 51.6417 175.958 49.6437C174.756 49.6437 169.735 49.6368 165.015 49.6304C160.828 49.6246 156.877 49.6192 156.038 49.6192C155.434 51.1633 152.764 58.1948 152.764 58.1948H136.43L159.531 5.89813C161.165 2.18195 163.952 1.16577 167.675 1.16577ZM166.822 22.0629C166.822 22.0629 161.912 34.7251 160.625 38.0145H173.537C172.914 35.1583 169.936 21.5364 169.936 21.5364L168.884 16.6163C168.471 17.7444 167.896 19.2365 167.457 20.3745C167.063 21.3978 166.779 22.1348 166.822 22.0629ZM39.4913 40.0822L54.7195 1.16577V1.16486L71.1967 1.16516L46.7088 58.1231L30.2516 58.1415L16.4491 8.67212C11.6413 5.99243 6.14838 3.83972 0 2.35138L0.198792 1.16406H25.2805C28.6588 1.28998 31.3903 2.37006 32.3315 5.98358L37.6215 31.4196C37.7085 31.6715 37.7911 31.923 37.8691 32.1739L39.4913 40.0822Z" fill="#F6F8FD"/>
</svg>
