<svg width="512" height="448" viewBox="0 0 512 448" fill="none" xmlns="http://www.w3.org/2000/svg">
<path d="M256 0C270.2 0 283.3 7.5 290.5 19.8L506.5 387.8C513.8 400.2 513.8 415.5 506.7 427.9C499.6 440.3 486.3 448 472 448H40.0002C25.7002 448 12.4002 440.3 5.3002 427.9C-1.7998 415.5 -1.6998 400.1 5.5002 387.8L221.5 19.8C228.7 7.5 241.8 0 256 0ZM256 128C242.7 128 232 138.7 232 152V264C232 277.3 242.7 288 256 288C269.3 288 280 277.3 280 264V152C280 138.7 269.3 128 256 128ZM288 352C288 343.513 284.629 335.374 278.628 329.373C272.626 323.371 264.487 320 256 320C247.513 320 239.374 323.371 233.373 329.373C227.372 335.374 224 343.513 224 352C224 360.487 227.372 368.626 233.373 374.627C239.374 380.629 247.513 384 256 384C264.487 384 272.626 380.629 278.628 374.627C284.629 368.626 288 360.487 288 352Z" fill="#B57F7F"/>
</svg>
