<svg width="56" height="61" viewBox="0 0 56 61" fill="none" xmlns="http://www.w3.org/2000/svg">
<path d="M27.9972 0C25.7848 0 23.9973 1.70371 23.9973 3.8125V6.1C14.8724 7.86328 7.9975 15.5598 7.9975 24.7812V27.0211C7.9975 32.6207 5.83503 38.0297 1.93508 42.2234L1.01009 43.2123C-0.0398921 44.3322 -0.289889 45.9406 0.347603 47.3107C0.985094 48.6809 2.42258 49.5625 3.99755 49.5625H51.9969C53.5719 49.5625 54.9969 48.6809 55.6469 47.3107C56.2969 45.9406 56.0344 44.3322 54.9844 43.2123L54.0594 42.2234C50.1595 38.0297 47.997 32.6326 47.997 27.0211V24.7812C47.997 15.5598 41.1221 7.86328 31.9972 6.1V3.8125C31.9972 1.70371 30.2097 0 27.9972 0ZM33.6597 58.7721C35.1596 57.3424 35.9971 55.4004 35.9971 53.375H27.9972H19.9973C19.9973 55.4004 20.8348 57.3424 22.3348 58.7721C23.8348 60.2018 25.8723 61 27.9972 61C30.1222 61 32.1597 60.2018 33.6597 58.7721Z" fill="#0D6680"/>
</svg>
