<svg width="56" height="64" viewBox="0 0 56 64" fill="none" xmlns="http://www.w3.org/2000/svg">
<path d="M27.9972 0C25.7847 0 23.9972 1.7875 23.9972 4V6.4C14.8722 8.25 7.9972 16.325 7.9972 26V29.175C7.9972 34.85 6.0597 40.3625 2.5222 44.7875L0.659705 47.125C-0.0652952 48.025 -0.202795 49.2625 0.297205 50.3C0.797205 51.3375 1.8472 52 2.9972 52H52.9972C54.1472 52 55.1972 51.3375 55.6972 50.3C56.1972 49.2625 56.0597 48.025 55.3347 47.125L53.4722 44.8C49.9347 40.3625 47.9972 34.85 47.9972 29.175V26C47.9972 16.325 41.1222 8.25 31.9972 6.4V4C31.9972 1.7875 30.2097 0 27.9972 0ZM27.9972 12C35.7347 12 41.9972 18.2625 41.9972 26V29.175C41.9972 35.1625 43.7347 41 46.9597 46H9.03471C12.2597 41 13.9972 35.1625 13.9972 29.175V26C13.9972 18.2625 20.2597 12 27.9972 12ZM35.9972 56H27.9972H19.9972C19.9972 58.125 20.8347 60.1625 22.3347 61.6625C23.8347 63.1625 25.8722 64 27.9972 64C30.1222 64 32.1597 63.1625 33.6597 61.6625C35.1597 60.1625 35.9972 58.125 35.9972 56Z" fill="#9DAAB0"/>
</svg>
