<svg width="200" height="200" viewBox="0 0 200 200" fill="none" xmlns="http://www.w3.org/2000/svg">
<g clip-path="url(#clip0_431_14)">
<path d="M-3.06796e-05 124.7C-3.06796e-05 112.2 0.0999693 99.7005 -3.06796e-05 87.2005C-0.100031 76.9005 4.29997 69.5005 12.9 64.0005C24.3 56.8005 37 53.7005 50.1 51.9005C70.2 49.1005 90.3 49.5005 110.2 53.9005C120.2 56.1005 129.7 59.4005 138.2 65.2005C145.5 70.2005 149.4 77.0005 149.4 85.8005C149.5 111.8 149.5 137.8 149.4 163.8C149.4 177.6 140.2 184.6 129.1 189.5C110.1 198 89.9 199.7 69.5 199.2C54.8 198.8 40.2 197.1 26.4 191.9C21.3 190 16.4 187.4 11.7 184.6C3.69997 179.7 -0.100031 172.2 -3.06796e-05 162.8C0.0999693 150.1 -3.06796e-05 137.4 -3.06796e-05 124.7ZM74.5 100.8C84.7 99.6005 95.1 99.0005 105.1 96.8005C112.6 95.2005 120 92.1005 126.9 88.8005C132.3 86.2005 132.1 82.7005 127.1 79.5005C123.9 77.5005 120.4 75.7005 116.8 74.5005C92.7 66.4005 68 66.4005 43.4 71.5005C35.8 73.1005 28.4 76.7005 21.3 80.2005C17.1 82.3005 17.3 84.9005 21.1 87.9005C23 89.4005 25.2 90.7005 27.5 91.7005C42.6 98.3005 58.4 100 74.5 100.8ZM131.1 108C93.1 121.6 55.9 121.4 18.1 108C18.1 112.7 18.4 116.7 18 120.6C17.6 125.3 19.7 128.4 23.6 130.2C28.9 132.6 34.2 135.2 39.8 136.6C59.6 141.6 79.7 142.1 99.7 138.7C107.6 137.3 115.5 134.7 123 131.7C126.2 130.4 130 127.2 130.8 124.2C132.1 119.2 131.1 113.6 131.1 108ZM131.2 148.7C93.3 162.3 56.1 162.1 18.8 148.9C17.2 167.4 15.9 168.4 32.3 174.9C33.4 175.3 34.5 175.7 35.6 176C56.8 182.3 78.3 182.7 99.8 179.1C108.2 177.7 116.4 174.6 124.4 171.4C127.2 170.3 130.2 166.9 130.8 164C132 159.3 131.2 154.2 131.2 148.7Z" fill="#9DAAB0"/>
<path d="M162.5 104.3C162.5 98.2998 162.4 92.9998 162.6 87.6998C162.6 86.7998 163.8 85.8998 164.6 85.1998C165 84.7998 165.9 84.7998 166.5 84.5998C184 77.4998 182.1 77.0998 180.9 57.8998C178.2 58.8998 175.7 59.7998 173.1 60.6998C170.7 61.4998 168.3 62.0998 166 62.9998C160.3 65.2998 155.6 65.2998 151.4 59.3998C148.7 55.6998 144.1 53.2998 139.6 49.5998C144 48.8998 147.8 48.3998 151.5 47.6998C160.9 45.9998 170.1 43.6998 178 37.9998C182.3 34.8998 182.7 32.5998 178 30.1998C170.5 26.4998 162.6 22.6998 154.5 21.0998C129.3 16.1998 104.2 16.2998 79.6999 25.4998C77.1999 26.3998 74.6999 27.5998 72.6999 29.1998C70.5999 30.8998 69.1999 33.3998 67.5999 35.5998C67.8999 35.9998 68.1999 36.3998 68.4999 36.7998C62.7999 37.1998 56.9999 37.5998 50.6999 37.9998C49.5999 30.6998 51.3999 24.3998 56.4999 19.2998C65.1999 10.5998 76.2999 6.59982 87.9999 4.09982C117.7 -2.30018 147.2 -1.80018 176 8.49982C178.8 9.49982 181.4 10.9998 184.1 12.3998C195.1 18.1998 199.9 26.9998 199.7 39.5998C199.2 63.8998 199.5 88.2998 199.6 112.6C199.6 122 195.9 129.2 188 134.5C180.4 139.5 172.2 142.8 162.7 144.7C162.7 139 162.6 133.7 162.8 128.4C162.8 127.5 163.8 126.4 164.7 125.9C165.8 125.2 167.2 125 168.4 124.5C182 119.3 184.7 113.7 180.7 98.4998C177.8 99.5998 174.9 100.7 172 101.7C169 102.6 166.2 103.3 162.5 104.3Z" fill="#9DAAB0"/>
</g>
<defs>
<clipPath id="clip0_431_14">
<rect width="199.6" height="199.3" fill="white"/>
</clipPath>
</defs>
</svg>
