<svg width="182" height="182" viewBox="0 0 182 182" fill="none" xmlns="http://www.w3.org/2000/svg">
<g clip-path="url(#clip0_431_18)">
<path d="M182 28.4375C182 34.8359 176.917 40.7367 168.35 45.5C158.006 51.223 142.579 55.2754 124.876 56.484C123.561 55.8441 122.246 55.2398 120.859 54.7066C106.854 48.8414 88.2273 45.5 68.25 45.5C65.2996 45.5 62.4203 45.5711 59.541 45.7133L59.15 45.5C50.5832 40.7367 45.5 34.8359 45.5 28.4375C45.5 12.7258 76.0703 0 113.75 0C151.43 0 182 12.7258 182 28.4375ZM57.1238 57.266C60.7496 57.0172 64.482 56.875 68.25 56.875C90.3602 56.875 109.982 61.2473 122.459 68.0367C131.275 72.8355 136.5 78.8074 136.5 85.3125C136.5 86.7344 136.251 88.1207 135.754 89.4715C134.118 94.1637 129.711 98.4648 123.312 102.091C123.277 102.126 123.205 102.126 123.17 102.162C123.063 102.233 122.957 102.268 122.85 102.339C110.409 109.236 90.5734 113.714 68.25 113.714C47.0641 113.714 28.1176 109.698 15.5695 103.37C14.8941 103.05 14.2543 102.695 13.6145 102.339C5.0832 97.6117 0 91.7109 0 85.3125C0 72.9422 18.982 62.3848 45.5 58.5102C49.2324 57.977 53.107 57.5504 57.1238 57.266ZM147.875 85.3125C147.875 77.5277 144.107 71.1293 139.308 66.3305C149.368 64.7664 158.575 62.2781 166.395 59.0434C172.189 56.6262 177.592 53.6402 182 49.9789V62.5625C182 69.423 176.135 75.7504 166.43 80.6559C161.241 83.2863 154.913 85.5258 147.804 87.232C147.839 86.5922 147.875 85.9879 147.875 85.348V85.3125ZM136.5 119.438C136.5 125.836 131.417 131.737 122.85 136.5C122.21 136.855 121.57 137.175 120.895 137.531C108.382 143.858 89.4359 147.875 68.25 147.875C45.9266 147.875 26.0914 143.396 13.65 136.5C5.0832 131.737 0 125.836 0 119.438V106.854C4.44336 110.515 9.81094 113.501 15.6051 115.918C29.6461 121.784 48.2727 125.125 68.25 125.125C88.2273 125.125 106.854 121.784 120.895 115.918C123.668 114.781 126.334 113.466 128.857 112.044C131.026 110.835 133.052 109.484 134.971 108.062C135.505 107.671 136.002 107.245 136.5 106.854V108.062V110.089V119.438ZM147.875 119.438V108.062V98.8559C154.629 97.3629 160.85 95.4789 166.395 93.1684C172.189 90.7512 177.592 87.7652 182 84.1039V96.6875C182 100.42 180.223 104.152 176.704 107.671C170.909 113.466 160.707 118.229 147.804 121.321C147.839 120.717 147.875 120.077 147.875 119.438ZM68.25 159.25C88.2273 159.25 106.854 155.909 120.895 150.043C126.689 147.626 132.092 144.64 136.5 140.979V153.562C136.5 169.274 105.93 182 68.25 182C30.5703 182 0 169.274 0 153.562V140.979C4.44336 144.64 9.81094 147.626 15.6051 150.043C29.6461 155.909 48.2727 159.25 68.25 159.25Z" fill="#0D6680"/>
</g>
<defs>
<clipPath id="clip0_431_18">
<rect width="182" height="182" fill="white"/>
</clipPath>
</defs>
</svg>
