<svg width="220" height="291" viewBox="0 0 220 291" fill="none" xmlns="http://www.w3.org/2000/svg">
<path d="M200.326 290.5C211.371 290.5 220.39 281.536 219.71 270.512C216.258 214.583 198.371 160.376 167.639 113.249C136.907 66.1219 94.5168 27.893 44.7294 2.18062C34.9152 -2.88786 23.0759 1.75008 18.6215 11.8578L2.03697 49.4905C-2.41742 59.5982 2.21417 71.3313 11.9221 76.6003C47.3534 95.8307 77.5512 123.619 99.6855 157.562C121.82 191.505 135.07 230.344 138.379 270.522C139.286 281.53 148.155 290.5 159.201 290.5L200.326 290.5Z" fill="#78B577"/>
<path d="M200.326 290.5C211.371 290.5 220.39 281.536 219.71 270.512C216.258 214.583 198.371 160.376 167.639 113.249C136.907 66.1219 94.5168 27.893 44.7294 2.18062C34.9152 -2.88786 23.0759 1.75008 18.6215 11.8578L2.03697 49.4905C-2.41742 59.5982 2.21417 71.3313 11.9221 76.6003C47.3534 95.8307 77.5512 123.619 99.6855 157.562C121.82 191.505 135.07 230.344 138.379 270.522C139.286 281.53 148.155 290.5 159.201 290.5L200.326 290.5Z" stroke="#F8FBFD"/>
</svg>
