<svg width="838" height="876" viewBox="0 0 838 876" fill="none" xmlns="http://www.w3.org/2000/svg">
<path d="M823.4 511.75C817.59 503.94 810.35 497.11 803.31 490.3C791.69 479.07 779.64 468.28 767.87 457.2C757.73 447.65 757.89 427.95 768.12 418.39C782.62 404.86 797.42 391.65 811.6 377.79C818 371.55 823.77 364.48 828.79 357.08C834.27 349.04 837.22 339.82 837.43 329.84C837.68 317.89 835.38 306.61 831.5 295.2C813.26 241.59 786.59 192.79 749.2 150.23C730.02 128.4 705.43 118.86 676.42 126.04C654.64 131.43 633.01 137.64 611.73 144.74C595.14 150.27 579.08 137.38 576.39 124.36C572.45 105.31 567.9 86.3699 563.1 67.5099C555.73 38.5699 539.91 17.3199 509.13 10.2599C486.34 5.03988 463.25 2.09987 439.91 1.13987C405.83 -0.250125 372 2.00988 338.45 8.24988C326.95 10.3899 315.31 12.7099 305.63 19.4399C288.76 31.1699 279.03 47.9299 274.4 67.7999C269.94 86.9199 265.45 106.03 260.82 125.1C257 140.77 242.01 149.27 226.6 144.76C206.01 138.73 185.44 132.62 164.79 126.76C146.42 121.55 128.66 123.06 111.54 132C100.91 137.55 93.2402 146.03 85.7102 155.07C61.8302 183.77 41.1602 214.52 25.5502 248.44C17.9902 264.89 11.7302 281.93 4.95024 298.73C-1.13976 313.8 -1.45976 329.1 3.19024 344.62C7.05024 357.54 15.6302 367.44 24.7702 376.57C38.6802 390.45 53.3102 403.63 67.9202 416.79C75.9402 424.02 77.8902 432.81 76.7902 442.97C75.8602 451.51 70.2102 456.71 64.5302 462.24C46.8902 479.41 26.9902 494.29 12.0002 514.16C3.85024 524.96 -0.27976 536.88 0.27024 552.41C-0.24976 561.09 2.81024 570.96 6.27024 580.99C19.7802 620.11 37.8002 656.9 62.0902 690.44C71.5602 703.5 81.6702 716.17 92.2602 728.35C109.24 747.88 131.46 755.94 156.45 750.74C180.49 745.75 203.86 737.58 227.54 730.85C241.7 726.82 257.06 735.54 260.54 749.78C265.31 769.33 269.57 789.01 274.56 808.51C282.09 837.89 298.35 859.21 329.69 865.8C354.34 870.99 379.28 873.92 404.45 874.92C437.57 876.22 470.42 873.64 502.78 866.67C513.02 864.47 523.7 861.22 532.41 855.67C549.27 844.92 558.43 828.02 563.06 808.75C567.59 789.82 571.94 770.85 576.42 751.91C580.4 735.1 595.29 726.44 611.79 731.27C631.26 736.97 650.78 742.52 670.2 748.42C700 757.46 726.12 750.26 746.82 728.09C772.5 700.56 793 669.04 808.96 634.91C817.74 616.11 824.97 596.57 832.52 577.22C841.66 553.8 838.26 531.72 823.4 511.75ZM752.52 559.63C738.54 598.18 718.54 633.28 692.28 664.82C689.75 667.86 687.61 668.5 683.83 667.34C667.61 662.36 651.29 657.74 634.99 653.02C575.12 635.69 513.31 671.14 498.23 731.43C493.83 749.02 489.34 766.58 485.05 784.19C484.27 787.41 482.79 788.67 479.44 789.17C454.14 792.88 428.7 794.29 403.2 793.06C387.75 792.31 372.35 790.48 356.96 788.81C355.5 788.66 353.48 786.42 353.1 784.82C349.03 767.66 345.15 750.46 341.4 733.23C335.34 705.44 320 684.12 296.5 668.49C281.96 658.81 266.53 651.19 248.95 648.77C235.39 646.9 222.05 647.9 208.89 651.65C190.34 656.94 171.73 662.06 153.23 667.52C149.74 668.55 147.85 667.77 145.63 665.12C119.18 633.51 99.1302 598.26 84.9902 559.58C83.8602 556.48 84.5402 554.78 86.7902 552.74C98.0202 542.55 108.97 532.05 120.29 521.97C144.7 500.23 158.13 473.35 158.78 440.5C159.4 408.62 148.16 381.66 124.9 359.71C112.17 347.71 99.7102 335.42 86.9802 323.42C84.4402 321.02 83.9002 319.04 85.1502 315.67C99.4102 277.23 119.32 242.09 145.67 210.61C147.97 207.87 149.88 207.28 153.22 208.29C169.29 213.17 185.44 217.8 201.55 222.55C251.48 237.28 305.93 215.09 331.46 169.71C339.2 155.96 341.85 140.7 345.21 125.61C347.73 114.25 350.37 102.91 352.74 91.5099C353.38 88.4599 354.53 87.2299 357.83 86.7599C390.63 82.0899 423.52 81.1199 456.52 84.0099C464.81 84.7299 473.08 85.7599 481.27 87.1799C482.8 87.4499 484.54 90.1199 485.04 91.9899C489.63 109.18 493.83 126.48 498.42 143.67C510.51 188.97 540.45 215.76 585.41 226.33C601.29 230.07 617.21 228.04 632.78 223.49C649.87 218.51 666.99 213.64 684 208.4C687.83 207.23 689.83 208.06 692.32 211.06C718.5 242.46 738.3 277.47 752.5 315.76C753.78 319.21 753.07 321.1 750.51 323.42C737.91 334.82 725.43 346.36 712.99 357.95C677.5 391.01 668.1 445.94 691.38 488.57C696.48 497.92 703.71 506.37 711.13 514.13C723.78 527.36 737.37 539.71 750.54 552.46C751.78 553.66 752.84 555.06 753.82 556.16C753.22 557.76 752.86 558.69 752.52 559.63Z" fill="#9DAAB0"/>
<path d="M419.42 274.05C329.72 273.4 255.69 346.91 255.04 437.26C254.39 527.15 328 601.2 418.69 601.89C507.93 602.56 581.86 528.64 582.58 438.03C583.29 348.9 509.46 274.71 419.42 274.05ZM418.5 520.15C369.74 519.47 336.79 481.67 336.87 437.95C336.94 393.66 370.63 355.13 419.88 355.74C467.76 356.33 500.72 394.05 500.75 438.1C500.77 482.42 466.57 520.24 418.5 520.15Z" fill="#9DAAB0"/>
</svg>
