<svg width="512" height="438" viewBox="0 0 512 438" fill="none" xmlns="http://www.w3.org/2000/svg">
<path d="M47.6 258.249L228.3 426.949C235.8 433.949 245.7 437.849 256 437.849C266.3 437.849 276.2 433.949 283.7 426.949L464.4 258.249C494.8 229.949 512 190.249 512 148.749V142.949C512 73.0491 461.5 13.4491 392.6 1.9491C347 -5.6509 300.6 9.24911 268 41.8491L256 53.8491L244 41.8491C211.4 9.24911 165 -5.6509 119.4 1.9491C50.5 13.4491 0 73.0491 0 142.949V148.749C0 190.249 17.2 229.949 47.6 258.249Z" fill="#0D6680"/>
</svg>
