<svg width="60" height="52" viewBox="0 0 60 52" fill="none" xmlns="http://www.w3.org/2000/svg">
<path d="M26.4609 49.8671L26.168 49.5976L5.63672 30.5312C2.03906 27.1913 0 22.5038 0 17.5937V17.2069C0 8.95693 5.85938 1.87881 13.9687 0.331934C18.5859 -0.558691 23.3086 0.507715 27.0703 3.15615C28.125 3.90615 29.1094 4.77334 30 5.76943C30.4922 5.20693 31.0195 4.69131 31.582 4.21084C32.0156 3.83584 32.4609 3.48428 32.9297 3.15615C36.6914 0.507715 41.4141 -0.558691 46.0312 0.320215C54.1406 1.86709 60 8.95693 60 17.2069V17.5937C60 22.5038 57.9609 27.1913 54.3633 30.5312L33.832 49.5976L33.5391 49.8671C32.5781 50.7577 31.3125 51.2616 30 51.2616C28.6875 51.2616 27.4219 50.7694 26.4609 49.8671ZM28.0195 11.9921C27.9727 11.9569 27.9375 11.9101 27.9023 11.8632L25.8164 9.51943L25.8047 9.50772C23.0977 6.47256 19.0078 5.08975 15.0234 5.85146C9.5625 6.89443 5.625 11.6522 5.625 17.2069V17.5937C5.625 20.9335 7.01953 24.1327 9.46875 26.4062L30 45.4726L50.5313 26.4062C52.9805 24.1327 54.375 20.9335 54.375 17.5937V17.2069C54.375 11.664 50.4375 6.89443 44.9883 5.85146C41.0039 5.08975 36.9023 6.48428 34.207 9.50772C34.207 9.50772 34.207 9.50772 34.1953 9.51943C34.1836 9.53115 34.1953 9.51943 34.1836 9.53115L32.0977 11.8749C32.0625 11.9218 32.0156 11.9569 31.9805 12.0038C31.4531 12.5312 30.7383 12.8241 30 12.8241C29.2617 12.8241 28.5469 12.5312 28.0195 12.0038V11.9921Z" fill="#9DAAB0"/>
</svg>
