<svg width="63" height="55" viewBox="0 0 63 55" fill="none" xmlns="http://www.w3.org/2000/svg">
<path d="M62.9835 27.4409C62.9835 29.3741 61.3424 30.8885 59.4826 30.8885H55.9817L56.0583 48.0941C56.0583 48.3841 56.0364 48.6741 56.0035 48.9641V50.704C56.0035 53.0775 54.0452 55 51.6274 55H49.877C49.7566 55 49.6363 55 49.5159 54.9893C49.3628 55 49.2096 55 49.0564 55L45.5008 54.9893H42.8752C40.4573 54.9893 38.499 53.0668 38.499 50.6932V48.1156V41.2419C38.499 39.341 36.9346 37.8051 34.9981 37.8051H27.9963C26.0599 37.8051 24.4954 39.341 24.4954 41.2419V48.1156V50.6932C24.4954 53.0668 22.5371 54.9893 20.1193 54.9893H17.4936H14.0036C13.8395 54.9893 13.6754 54.9785 13.5113 54.9678C13.38 54.9785 13.2487 54.9893 13.1175 54.9893H11.367C8.94919 54.9893 6.99087 53.0668 6.99087 50.6932V38.6643C6.99087 38.5677 6.99087 38.4603 7.00181 38.3636V30.8778H3.50091C1.53165 30.8778 0 29.3741 0 27.4302C0 26.4636 0.32821 25.6044 1.09403 24.8526L29.1341 0.859207C29.8999 0.107401 30.7751 0 31.541 0C32.3068 0 33.182 0.214802 33.8384 0.751806L61.78 24.8633C62.6553 25.6151 63.0929 26.4743 62.9835 27.4409Z" fill="#0D6680"/>
</svg>
