<svg width="66" height="59" viewBox="0 0 66 59" fill="none" xmlns="http://www.w3.org/2000/svg">
<path d="M31.8757 0.225375C31.5239 0.381711 29.2961 2.16004 26.912 4.17286C24.5474 6.18569 22.2219 8.15944 21.7724 8.53074C21.323 8.90203 20.424 9.64463 19.7987 10.1918C19.1733 10.7194 16.8478 12.6932 14.6396 14.5692C12.4313 16.4453 9.89087 18.6144 8.9724 19.3961C8.05392 20.1778 5.78705 22.0929 3.93056 23.6758C-0.153727 27.1543 -0.388231 27.5256 0.29574 29.2453C0.706122 30.2615 1.46826 30.8086 2.52353 30.8086C3.50063 30.8086 3.8133 30.6523 5.49392 29.3039C6.21697 28.7372 6.90094 28.2682 6.99865 28.2682C7.15499 28.2682 7.21362 31.5903 7.21362 38.899C7.21362 47.5757 7.27224 49.8035 7.50675 50.9174C8.2298 54.3568 10.3794 56.8386 13.4475 57.7766C14.6591 58.1675 15.2649 58.1675 32.7941 58.1675C47.6852 58.1675 51.0464 58.1089 51.789 57.8939C54.134 57.1708 55.8537 55.842 57.0067 53.8487C58.1792 51.7968 58.2183 51.4059 58.2183 39.2508C58.2183 30.5937 58.2769 28.2682 58.4723 28.2682C58.5896 28.2682 59.4495 28.8544 60.3679 29.5384C61.8922 30.6914 62.1072 30.8086 62.9866 30.8086C63.8269 30.8086 64.0223 30.7305 64.6867 30.0465C65.3707 29.3821 65.4489 29.1867 65.4489 28.3268C65.4489 27.037 65.2339 26.7244 62.9866 24.8288C62.2244 24.2034 57.632 20.295 52.7661 16.1521C47.9001 12.0092 43.5422 8.31577 43.0732 7.94448C42.6238 7.57318 40.4937 5.77531 38.3636 3.9579C33.6344 -0.0872973 33.1654 -0.341344 31.8757 0.225375ZM36.3312 9.25379C38.1877 10.8562 40.0442 12.4001 40.4351 12.7323C41.3145 13.4358 47.3334 18.5363 47.4702 18.6926C47.5288 18.7512 48.6427 19.7088 49.9325 20.7836C51.2418 21.8779 52.4534 22.9137 52.6293 23.0895C52.9029 23.3827 52.942 24.692 52.942 36.6908C52.942 51.0346 52.9615 50.7611 51.9062 51.8749C51.0464 52.813 50.636 52.8911 47.0793 52.8911H43.7572L43.7377 44.3317C43.7377 39.6416 43.6595 35.3619 43.5813 34.8538C43.3859 33.6422 42.5261 32.4306 41.3145 31.688L40.3764 31.1018H32.8332C24.4106 31.1018 24.7233 31.0627 23.1795 32.5283C21.9092 33.7595 21.8701 34.0331 21.8701 44.0386V52.8911H18.5089C15.304 52.8911 15.1281 52.8716 14.3269 52.4026C13.7797 52.0899 13.3694 51.6404 13.0958 51.0737C12.6854 50.2334 12.6854 50.038 12.6854 36.7494L12.7049 23.285L13.9361 22.2102C14.6005 21.6239 17.864 18.8489 21.1862 16.0544C24.4888 13.2599 28.3972 9.93776 29.8628 8.68707C31.3285 7.43638 32.6183 6.40066 32.7355 6.38111C32.8528 6.38111 34.4747 7.67089 36.3312 9.25379ZM38.2854 44.6835V52.8911H32.8137H27.3419V44.6835V36.4758H32.8137H38.2854V44.6835Z" fill="#9DAAB0"/>
</svg>
