<svg width="46" height="63" viewBox="0 0 46 63" fill="none" xmlns="http://www.w3.org/2000/svg">
<path d="M1.6766 0.602526C2.69482 0.130229 3.89274 0.299772 4.74326 1.03849L9.58284 5.22861L14.4224 1.03849C15.5006 0.106009 17.0938 0.106009 18.1599 1.03849L22.9995 5.22861L27.8391 1.03849C28.9172 0.106009 30.5104 0.106009 31.5766 1.03849L36.4162 5.22861L41.2558 1.03849C42.1063 0.299772 43.3042 0.130229 44.3224 0.602526C45.3407 1.07482 45.9995 2.10419 45.9995 3.24254V59.4337C45.9995 60.5721 45.3407 61.6014 44.3224 62.0737C43.3042 62.546 42.1063 62.3765 41.2558 61.6378L36.4162 57.4477L31.5766 61.6378C30.4985 62.5703 28.9052 62.5703 27.8391 61.6378L22.9995 57.4477L18.1599 61.6378C17.0818 62.5703 15.4886 62.5703 14.4224 61.6378L9.58284 57.4477L4.74326 61.6378C3.89274 62.3765 2.69482 62.546 1.6766 62.0737C0.658366 61.6014 -0.000488281 60.5721 -0.000488281 59.4337V3.24254C-0.000488281 2.10419 0.658366 1.07482 1.6766 0.602526ZM11.4995 17.7747C10.4453 17.7747 9.58284 18.6467 9.58284 19.7124C9.58284 20.7781 10.4453 21.65 11.4995 21.65H34.4995C35.5537 21.65 36.4162 20.7781 36.4162 19.7124C36.4162 18.6467 35.5537 17.7747 34.4995 17.7747H11.4995ZM9.58284 42.9639C9.58284 44.0296 10.4453 44.9015 11.4995 44.9015H34.4995C35.5537 44.9015 36.4162 44.0296 36.4162 42.9639C36.4162 41.8982 35.5537 41.0263 34.4995 41.0263H11.4995C10.4453 41.0263 9.58284 41.8982 9.58284 42.9639ZM11.4995 29.4005C10.4453 29.4005 9.58284 30.2724 9.58284 31.3381C9.58284 32.4038 10.4453 33.2758 11.4995 33.2758H34.4995C35.5537 33.2758 36.4162 32.4038 36.4162 31.3381C36.4162 30.2724 35.5537 29.4005 34.4995 29.4005H11.4995Z" fill="#F8FBFD"/>
</svg>
