<svg width="67" height="64" viewBox="0 0 67 64" fill="none" xmlns="http://www.w3.org/2000/svg">
<path d="M33.4878 0C34.6218 0 35.6572 0.65 36.1503 1.6875L44.6062 19.35L63.4902 22.175C64.5996 22.3375 65.5241 23.125 65.8692 24.2125C66.2144 25.3 65.9309 26.475 65.142 27.275L51.4474 41.05L54.6769 60.5C54.8618 61.625 54.4057 62.7625 53.4812 63.4375C52.5567 64.1125 51.3487 64.1875 50.3626 63.65L33.4755 54.5L16.613 63.6375C15.6145 64.175 14.4066 64.1 13.4944 63.425C12.5823 62.75 12.1138 61.6125 12.2987 60.4875L15.5283 41.0375L1.83364 27.275C1.03242 26.475 0.761244 25.2875 1.10638 24.2125C1.45152 23.1375 2.376 22.35 3.48538 22.175L22.3694 19.35L30.8253 1.6875C31.3307 0.65 32.3538 0 33.4878 0ZM33.4878 9.875L27.0165 23.4C26.585 24.2875 25.7592 24.9125 24.7854 25.0625L10.2033 27.2375L20.7916 37.875C21.4696 38.5625 21.7901 39.5375 21.6298 40.5L19.1276 55.4625L32.0949 48.4375C32.9701 47.9625 34.0178 47.9625 34.8807 48.4375L47.848 55.4625L45.3581 40.5125C45.1979 39.55 45.506 38.575 46.1963 37.8875L56.7847 27.25L42.2026 25.0625C41.2411 24.9125 40.4029 24.3 39.9715 23.4L33.4878 9.875Z" fill="#9DAAB0"/>
</svg>
