<svg width="766" height="767" viewBox="0 0 766 767" fill="none" xmlns="http://www.w3.org/2000/svg">
<path d="M491.79 91.5997C491.79 86.4497 491.53 81.2797 491.07 76.1497C487.42 35.4697 457.94 4.69965 417.47 1.31965C396.28 -0.450347 374.83 -0.140347 353.55 0.549653C334.12 1.17965 316.17 7.62965 301.4 20.6697C281.99 37.7997 273.44 60.2197 273.37 85.5997C273.12 184.76 273.27 283.92 273.27 383.09C273.27 480.58 273.23 578.08 273.35 675.57C273.36 683.19 273.82 690.95 275.29 698.41C282.96 737.49 310.72 761.3 348.36 764.64C370.99 766.65 394.04 766.32 416.72 764.65C441.69 762.82 462.6 751.51 476.97 730.11C487.21 714.85 491.78 697.79 491.78 679.58C491.84 483.59 491.83 287.6 491.79 91.5997ZM409.78 683.75H355.41V82.1697H409.78V683.75Z" fill="#9DAAB0"/>
<path d="M765.03 195.28C765.02 190.14 764.73 184.93 763.83 179.87C759.82 157.19 749.86 138.02 730.21 124.85C715.26 114.83 698.66 110.07 680.76 109.9C664.27 109.74 647.77 109.76 631.28 109.93C626.31 109.98 621.28 110.41 616.39 111.29C593.68 115.35 574.59 125.51 561.51 145.15C551.44 160.27 546.89 177.08 546.89 195.19C546.91 276 546.9 356.82 546.9 437.63C546.9 517.94 546.87 598.25 546.95 678.56C546.96 684.36 547.26 690.251 548.25 695.951C555.2 736.151 582.9 760.961 621.27 764.581C644.2 766.751 667.6 766.34 690.6 764.61C714.97 762.79 735.54 751.73 749.79 730.98C760.28 715.7 765.08 698.621 765.08 680.151C765.07 518.531 765.09 356.91 765.03 195.28ZM683.15 683.651H628.81C628.69 681.901 628.45 679.98 628.45 678.07C628.43 517.79 628.45 357.51 628.33 197.23C628.33 192.32 629.82 191.1 634.54 191.2C648.86 191.5 663.2 191.3 677.52 191.32C679.31 191.32 681.1 191.47 683.15 191.56V683.651Z" fill="#9DAAB0"/>
<path d="M218.14 415.77C218.13 409.97 217.85 404.09 216.88 398.38C210 357.89 182.3 333.34 142.56 329.38C124.9 327.62 106.96 328.48 89.1499 328.52C82.1899 328.54 75.1499 329.1 68.3099 330.31C49.9499 333.55 33.6799 341.33 21.2099 355.43C6.70992 371.81 0.0599216 391.42 0.0399216 413.19C-0.0200784 502.49 -7.84025e-05 591.78 0.0699216 681.08C0.0699216 685.89 0.439922 690.76 1.24992 695.49C8.22992 736.29 36.1799 760.97 74.3999 764.58C97.3299 766.75 120.72 766.31 143.73 764.62C167.91 762.83 188.37 751.87 202.63 731.4C213.32 716.06 218.2 698.82 218.19 680.17V547.22C218.19 503.4 218.24 459.59 218.14 415.77ZM136.16 683.85H82.0499V410.52H136.16V683.85Z" fill="#9DAAB0"/>
</svg>
