<svg width="448" height="448" viewBox="0 0 448 448" fill="none" xmlns="http://www.w3.org/2000/svg">
<path d="M160 48C160 21.5 181.5 0 208 0H240C266.5 0 288 21.5 288 48V400C288 426.5 266.5 448 240 448H208C181.5 448 160 426.5 160 400V48ZM0 240C0 213.5 21.5 192 48 192H80C106.5 192 128 213.5 128 240V400C128 426.5 106.5 448 80 448H48C21.5 448 0 426.5 0 400V240ZM368 64H400C426.5 64 448 85.5 448 112V400C448 426.5 426.5 448 400 448H368C341.5 448 320 426.5 320 400V112C320 85.5 341.5 64 368 64Z" fill="#0D6680"/>
</svg>
