<svg width="219" height="215" viewBox="0 0 219 215" fill="none" xmlns="http://www.w3.org/2000/svg">
<path d="M109.5 78.0841H0.0427734C1.15488 46.3796 17.6654 18.5685 42.3457 1.96747C48.0346 -1.8405 55.5199 0.127663 59.4123 5.73266L109.5 78.0841ZM164.25 64.3925C164.25 49.289 176.526 37.0094 191.625 37.0094H205.312C212.883 37.0094 219 43.1278 219 50.701C219 58.2741 212.883 64.3925 205.312 64.3925H191.625V91.7757C191.625 102.558 189.144 113.254 184.354 123.224C179.563 133.193 172.462 142.263 163.566 149.879C154.669 157.495 144.104 163.571 132.469 167.678C120.835 171.786 108.388 173.925 95.8125 173.925C83.2371 173.925 70.79 171.786 59.1557 167.678C47.5213 163.571 36.9562 157.495 28.0594 149.879C19.1625 142.263 12.1049 133.193 7.27148 123.224C2.43809 113.254 0 102.558 0 91.7757H95.8125H164.25V64.3925ZM34.2188 173.925C39.664 173.925 44.8862 176.089 48.7365 179.94C52.5869 183.792 54.75 189.016 54.75 194.463C54.75 199.909 52.5869 205.133 48.7365 208.985C44.8862 212.836 39.664 215 34.2188 215C28.7735 215 23.5513 212.836 19.701 208.985C15.8506 205.133 13.6875 199.909 13.6875 194.463C13.6875 189.016 15.8506 183.792 19.701 179.94C23.5513 176.089 28.7735 173.925 34.2188 173.925ZM136.875 194.463C136.875 189.016 139.038 183.792 142.888 179.94C146.739 176.089 151.961 173.925 157.406 173.925C162.851 173.925 168.074 176.089 171.924 179.94C175.774 183.792 177.938 189.016 177.938 194.463C177.937 199.909 175.774 205.133 171.924 208.985C168.074 212.836 162.851 215 157.406 215C151.961 215 146.739 212.836 142.888 208.985C139.038 205.133 136.875 199.909 136.875 194.463Z" fill="#BA8361"/>
</svg>
