<svg width="219" height="219" viewBox="0 0 219 219" fill="none" xmlns="http://www.w3.org/2000/svg">
<path d="M102.681 1.79648C106.872 -0.598828 112.047 -0.598828 116.281 1.79648L189.758 43.7572L191.597 44.4844V44.8693L212.083 56.5893C217.471 59.6689 220.123 65.9994 218.541 71.9877C216.958 77.976 211.527 82.1678 205.325 82.1678L13.6799 82.125C7.47851 82.125 2.04692 77.9332 0.464485 71.9449C-1.11795 65.9566 1.5337 59.6262 6.92252 56.5465L27.3658 44.8693V44.4844L29.2476 43.8L102.681 1.79648ZM27.3658 95.8125H54.7376V177.938H71.845V95.8125H99.2168V177.938H119.746V95.8125H147.117V177.938H164.225V95.8125H191.597V179.777C191.853 179.905 192.11 180.076 192.366 180.247L212.895 193.935C217.899 197.271 220.166 203.516 218.412 209.29C216.659 215.065 211.313 219 205.282 219H13.6799C7.64958 219 2.3463 215.065 0.592791 209.29C-1.16071 203.516 1.06324 197.271 6.10992 193.935L26.6388 180.247C26.8954 180.076 27.152 179.948 27.4086 179.777L27.3658 95.8125Z" fill="#D6CC72"/>
</svg>
