<svg width="218" height="191" viewBox="0 0 218 191" fill="none" xmlns="http://www.w3.org/2000/svg">
<path d="M108.992 0C115.039 0 120.617 3.19754 123.683 8.44152L215.658 165.334C218.766 170.621 218.766 177.144 215.743 182.431C212.72 187.717 207.057 191 200.967 191H17.0168C10.9276 191 5.26435 187.717 2.24109 182.431C-0.782178 177.144 -0.739597 170.578 2.32625 165.334L94.3016 8.44152C97.3674 3.19754 102.946 0 108.992 0ZM108.992 54.5714C103.329 54.5714 98.7726 59.1333 98.7726 64.8036V112.554C98.7726 118.224 103.329 122.786 108.992 122.786C114.655 122.786 119.212 118.224 119.212 112.554V64.8036C119.212 59.1333 114.655 54.5714 108.992 54.5714ZM122.618 150.071C122.618 146.453 121.182 142.983 118.627 140.424C116.072 137.866 112.606 136.429 108.992 136.429C105.378 136.429 101.912 137.866 99.3571 140.424C96.8017 142.983 95.3661 146.453 95.3661 150.071C95.3661 153.69 96.8017 157.16 99.3571 159.718C101.912 162.277 105.378 163.714 108.992 163.714C112.606 163.714 116.072 162.277 118.627 159.718C121.182 157.16 122.618 153.69 122.618 150.071Z" fill="#78B577"/>
</svg>
