<svg width="219" height="191" viewBox="0 0 219 191" fill="none" xmlns="http://www.w3.org/2000/svg">
<rect width="219" height="191" fill="#1E1E1E"/>
<g filter="url(#filter0_d_0_1)">
<rect width="7992" height="7502" transform="translate(-576 -1234)" fill="white"/>
<path d="M0 27.2857C0 12.2359 12.276 0 27.375 0H191.625C206.724 0 219 12.2359 219 27.2857V163.714C219 178.764 206.724 191 191.625 191H27.375C12.276 191 0 178.764 0 163.714V27.2857ZM20.5312 143.25V156.893C20.5312 160.645 23.6109 163.714 27.375 163.714H41.0625C44.8266 163.714 47.9062 160.645 47.9062 156.893V143.25C47.9062 139.498 44.8266 136.429 41.0625 136.429H27.375C23.6109 136.429 20.5312 139.498 20.5312 143.25ZM177.938 136.429C174.173 136.429 171.094 139.498 171.094 143.25V156.893C171.094 160.645 174.173 163.714 177.938 163.714H191.625C195.389 163.714 198.469 160.645 198.469 156.893V143.25C198.469 139.498 195.389 136.429 191.625 136.429H177.938ZM20.5312 88.6786V102.321C20.5312 106.073 23.6109 109.143 27.375 109.143H41.0625C44.8266 109.143 47.9062 106.073 47.9062 102.321V88.6786C47.9062 84.9268 44.8266 81.8571 41.0625 81.8571H27.375C23.6109 81.8571 20.5312 84.9268 20.5312 88.6786ZM177.938 81.8571C174.173 81.8571 171.094 84.9268 171.094 88.6786V102.321C171.094 106.073 174.173 109.143 177.938 109.143H191.625C195.389 109.143 198.469 106.073 198.469 102.321V88.6786C198.469 84.9268 195.389 81.8571 191.625 81.8571H177.938ZM20.5312 34.1071V47.75C20.5312 51.5018 23.6109 54.5714 27.375 54.5714H41.0625C44.8266 54.5714 47.9062 51.5018 47.9062 47.75V34.1071C47.9062 30.3554 44.8266 27.2857 41.0625 27.2857H27.375C23.6109 27.2857 20.5312 30.3554 20.5312 34.1071ZM177.938 27.2857C174.173 27.2857 171.094 30.3554 171.094 34.1071V47.75C171.094 51.5018 174.173 54.5714 177.938 54.5714H191.625C195.389 54.5714 198.469 51.5018 198.469 47.75V34.1071C198.469 30.3554 195.389 27.2857 191.625 27.2857H177.938ZM68.4375 40.9286V68.2143C68.4375 75.7605 74.5541 81.8571 82.125 81.8571H136.875C144.446 81.8571 150.562 75.7605 150.562 68.2143V40.9286C150.562 33.3824 144.446 27.2857 136.875 27.2857H82.125C74.5541 27.2857 68.4375 33.3824 68.4375 40.9286ZM82.125 109.143C74.5541 109.143 68.4375 115.24 68.4375 122.786V150.071C68.4375 157.618 74.5541 163.714 82.125 163.714H136.875C144.446 163.714 150.562 157.618 150.562 150.071V122.786C150.562 115.24 144.446 109.143 136.875 109.143H82.125Z" fill="#9E80B5"/>
</g>
<defs>
<filter id="filter0_d_0_1" x="-580" y="-1234" width="8000" height="7510" filterUnits="userSpaceOnUse" color-interpolation-filters="sRGB">
<feFlood flood-opacity="0" result="BackgroundImageFix"/>
<feColorMatrix in="SourceAlpha" type="matrix" values="0 0 0 0 0 0 0 0 0 0 0 0 0 0 0 0 0 0 127 0" result="hardAlpha"/>
<feOffset dy="4"/>
<feGaussianBlur stdDeviation="2"/>
<feComposite in2="hardAlpha" operator="out"/>
<feColorMatrix type="matrix" values="0 0 0 0 0 0 0 0 0 0 0 0 0 0 0 0 0 0 0.25 0"/>
<feBlend mode="normal" in2="BackgroundImageFix" result="effect1_dropShadow_0_1"/>
<feBlend mode="normal" in="SourceGraphic" in2="effect1_dropShadow_0_1" result="shape"/>
</filter>
</defs>
</svg>
