<svg width="243" height="219" viewBox="0 0 243 219" fill="none" xmlns="http://www.w3.org/2000/svg">
<path d="M0 10.2656C0 4.57676 4.55267 0 10.2116 0H29.5711C38.9317 0 47.2286 5.475 51.1005 13.6875H225.974C237.164 13.6875 245.334 24.3809 242.398 35.2453L224.953 100.389C221.336 113.82 209.21 123.188 195.382 123.188H72.63L74.9276 135.378C75.8636 140.211 80.0759 143.719 84.969 143.719H207.636C213.295 143.719 217.847 148.296 217.847 153.984C217.847 159.673 213.295 164.25 207.636 164.25H84.969C70.2473 164.25 57.6104 153.728 54.8873 139.228L32.9324 23.3115C32.6346 21.6861 31.2305 20.5312 29.5711 20.5312H10.2116C4.55267 20.5312 0 15.9545 0 10.2656ZM54.4618 198.469C54.4618 195.773 54.9901 193.103 56.0165 190.612C57.0428 188.121 58.5472 185.857 60.4437 183.951C62.3401 182.044 64.5916 180.532 67.0694 179.5C69.5473 178.469 72.203 177.938 74.885 177.938C77.567 177.938 80.2228 178.469 82.7006 179.5C85.1785 180.532 87.4299 182.044 89.3264 183.951C91.2229 185.857 92.7272 188.121 93.7536 190.612C94.78 193.103 95.3082 195.773 95.3082 198.469C95.3082 201.165 94.78 203.835 93.7536 206.326C92.7272 208.817 91.2229 211.08 89.3264 212.987C87.4299 214.893 85.1785 216.405 82.7006 217.437C80.2228 218.469 77.567 219 74.885 219C72.203 219 69.5473 218.469 67.0694 217.437C64.5916 216.405 62.3401 214.893 60.4437 212.987C58.5472 211.08 57.0428 208.817 56.0165 206.326C54.9901 203.835 54.4618 201.165 54.4618 198.469ZM197.424 177.938C202.841 177.938 208.035 180.101 211.866 183.951C215.696 187.801 217.847 193.024 217.847 198.469C217.847 203.914 215.696 209.136 211.866 212.987C208.035 216.837 202.841 219 197.424 219C192.008 219 186.813 216.837 182.983 212.987C179.153 209.136 177.001 203.914 177.001 198.469C177.001 193.024 179.153 187.801 182.983 183.951C186.813 180.101 192.008 177.938 197.424 177.938Z" fill="#BA8361"/>
</svg>
