<svg width="246" height="219" viewBox="0 0 246 219" fill="none" xmlns="http://www.w3.org/2000/svg">
<path d="M132.219 67.7959L142.085 8.46914C142.897 3.59297 147.125 0 152.079 0C155.283 0 158.272 1.49707 160.194 4.06348L167.413 13.6875H189.665C195.089 13.6875 200.3 15.8689 204.144 19.7186L211.832 27.375H235.749C241.43 27.375 246 31.9518 246 37.6406V47.9062C246 66.8121 230.71 82.125 211.832 82.125H198.164H191.33H182.233L180.055 95.1709L132.219 67.7959ZM177.663 109.543V205.312C177.663 212.883 171.555 219 163.996 219H150.328C142.769 219 136.661 212.883 136.661 205.312V156.037C126.41 161.299 114.793 164.25 102.492 164.25C90.1918 164.25 78.5745 161.299 68.324 156.037V205.312C68.324 212.883 62.2164 219 54.6566 219H40.9892C33.4294 219 27.3218 212.883 27.3218 205.312V106.848C15.0212 102.186 5.36858 91.749 2.03715 78.4037L0.414151 71.7738C-1.4224 64.4596 3.0195 57.017 10.3657 55.1777C17.7119 53.3385 25.1009 57.7869 26.9374 65.1439L28.6031 71.7738C30.098 77.8477 35.565 82.125 41.8434 82.125H54.6566H61.4903H129.742L177.663 109.543ZM198.164 34.2188C198.164 32.4037 197.444 30.6629 196.163 29.3795C194.881 28.096 193.143 27.375 191.33 27.375C189.518 27.375 187.78 28.096 186.498 29.3795C185.217 30.6629 184.497 32.4037 184.497 34.2188C184.497 36.0338 185.217 37.7746 186.498 39.058C187.78 40.3415 189.518 41.0625 191.33 41.0625C193.143 41.0625 194.881 40.3415 196.163 39.058C197.444 37.7746 198.164 36.0338 198.164 34.2188Z" fill="#78B577"/>
</svg>
