<svg width="72" height="72" viewBox="0 0 72 72" fill="none" xmlns="http://www.w3.org/2000/svg">
<rect width="72" height="72" rx="36" fill="#508C47"/>
<path d="M36.0614 17.1426C37.4238 17.1426 38.5245 18.2912 38.5245 19.713V22.5806C38.6477 22.5967 38.7632 22.6128 38.8863 22.6369C38.9171 22.6449 38.9402 22.6449 38.971 22.6529L42.6657 23.3598C44.005 23.6168 44.8902 24.9583 44.6439 26.3479C44.3976 27.7375 43.1121 28.6693 41.7805 28.4123L38.1243 27.7134C35.715 27.344 33.5906 27.593 32.0973 28.2115C30.604 28.83 30.0036 29.6814 29.8651 30.4686C29.7111 31.3281 29.8266 31.8101 29.9575 32.1073C30.096 32.4205 30.3808 32.774 30.9427 33.1676C32.1974 34.0271 34.1217 34.5893 36.6156 35.2801L36.8388 35.3444C39.0403 35.9549 41.7343 36.6939 43.7356 38.0594C44.8286 38.8064 45.8601 39.8185 46.4989 41.2323C47.1532 42.6701 47.2917 44.2766 46.9916 45.9876C46.4604 49.0399 44.4438 51.0802 41.9421 52.1485C40.8876 52.5984 39.7407 52.8875 38.5245 53.0321V55.715C38.5245 57.1368 37.4238 58.2854 36.0614 58.2854C34.699 58.2854 33.5983 57.1368 33.5983 55.715V52.9116C33.5675 52.9036 33.529 52.9036 33.4982 52.8956H33.4828C31.6047 52.5903 28.5181 51.7469 26.4398 50.783C25.2005 50.2047 24.6386 48.6865 25.1928 47.3933C25.747 46.1 27.2018 45.5136 28.4411 46.092C30.0498 46.839 32.6977 47.578 34.2295 47.827C36.6849 48.2045 38.7093 47.9877 40.0794 47.4013C41.3802 46.847 41.9729 46.0438 42.1423 45.0799C42.2885 44.2284 42.1731 43.7384 42.0422 43.4412C41.896 43.1199 41.6112 42.7665 41.0416 42.3729C39.7792 41.5134 37.8472 40.9511 35.3456 40.2603L35.13 40.2041C32.9363 39.5776 30.2423 38.8305 28.241 37.465C27.1479 36.718 26.1242 35.6978 25.4853 34.2841C24.8388 32.8463 24.7079 31.2397 25.0158 29.5288C25.57 26.4604 27.7714 24.4683 30.273 23.4321C31.2968 23.0064 32.4206 22.7172 33.5983 22.5485V19.713C33.5983 18.2912 34.699 17.1426 36.0614 17.1426Z" fill="#F8FBFD"/>
</svg>
