<svg width="508" height="508" viewBox="0 0 508 508" fill="none" xmlns="http://www.w3.org/2000/svg">
<g clip-path="url(#clip0_446_17)">
<path d="M426.63 507.51H80.88C36.21 507.51 0 471.3 0 426.63V80.88C0 36.21 36.21 0 80.88 0H426.62C471.29 0 507.5 36.21 507.5 80.88V426.62C507.51 471.3 471.3 507.51 426.63 507.51Z" fill="url(#paint0_linear_446_17)"/>
<path d="M431.23 271.2C428.01 271.5 425.14 272.71 422.41 274.42C412.61 280.56 401.96 284.87 391.02 288.44C354.95 300.18 317.62 304.5 279.99 306.41C263.93 307.23 247.84 307.68 231.65 306.92C206.01 305.73 180.5 303.77 155.24 299.43C127.59 294.69 100.42 288.12 76.0801 273.2C74.0201 271.94 71.7201 271.64 69.4401 271.19C67.9401 270.61 66.4501 269.28 64.9201 271.13C62.2401 283.09 63.3301 285.92 73.3501 292.96C86.5301 302.21 101.02 308.83 116.18 314.03C151.25 326.07 187.54 331.27 224.41 333.25C269.23 335.66 313.58 332.33 357.29 321.95C382.18 316.04 406.12 307.64 427.38 292.91C437.37 285.99 438.45 282.96 435.68 271.03C434.14 269.3 432.7 270.64 431.23 271.2Z" fill="#FEFEFE"/>
<path d="M299.65 260.04C307.61 262.92 315.84 263.24 324.22 262.16C340.92 260.02 349.63 250.49 349.99 233.59C350.13 227.12 350.17 220.64 350.26 214.17L349.61 202.09C347.65 196.3 343.57 194 337.54 194.06C322.73 194.22 307.92 194.16 293.11 194.1C287.84 194.07 283.78 195.7 282.04 201.12C281.81 205.46 281.58 209.8 281.35 214.14C281.49 221.44 281.37 228.76 281.82 236.05C282.54 247.81 288.48 256 299.65 260.04ZM305.99 215.14C306.02 212.59 307.63 211.27 310.23 211.29C310.39 211.29 310.56 211.28 310.72 211.28C328.02 211.44 325.59 209.01 325.73 225.77C325.73 229.08 325.93 232.41 325.68 235.71C325.22 241.72 322.13 244.88 316.83 245.15C310.88 245.46 306.61 242.46 306.16 236.51C305.61 229.42 305.9 222.26 305.99 215.14Z" fill="#FEFEFE"/>
<path d="M85.69 261.87C91.42 262.82 97.2 263.06 103.04 262.33C119.81 260.23 126.86 253.71 130.06 236.99C130.07 227.01 130.07 217.03 130.08 207.06C129.97 205.8 129.87 204.54 129.76 203.28C127.74 195.91 122.56 193.61 115.43 194.06C111.46 194.32 107.46 194.11 103.47 194.11C95.5 194.11 95.5 194.11 95.5 201.91C95.5 210.3 95.5 210.3 103.25 211.88C105.04 212.12 105.17 213.63 105.26 214.87C105.79 222.44 106.28 230.05 105.06 237.57C104.18 242.94 101.04 245.23 95.76 245.16C90.47 245.1 87.95 242.92 86.73 237.35C85.64 235.52 86.04 233.48 86.03 231.53C85.98 223.09 86.01 214.64 86.01 206.2C86.01 194.11 86.01 194.02 74.01 194.16C70.1 194.2 64.94 192.34 62.64 195.04C60.72 197.29 62.01 202.28 61.87 206.05C61.86 206.38 61.78 206.71 61.73 207.04C61.79 215.99 61.74 224.96 61.94 233.91C62.26 249.38 70.76 259.4 85.69 261.87Z" fill="#FEFEFE"/>
<path d="M220.87 211.261C228.51 211.261 236.15 211.241 243.78 211.271C251.01 211.301 252.12 212.451 252.52 220.081C253.12 224.571 252.92 229.031 251.8 233.421C250.78 237.421 249.01 241.701 244.92 242.521C239.59 243.591 239.51 246.611 239.79 250.631C239.97 253.271 239.87 255.941 239.82 258.601C239.78 260.211 240.32 260.811 242.05 261.061C256.28 263.111 269.48 255.491 274.79 242.091C277.47 235.321 277.87 228.211 278.15 221.071C277.86 215.041 277.53 209.021 275.75 203.191C272.58 195.861 266.39 194.091 259.17 194.111C245.18 194.141 231.19 194.111 217.19 194.111C210.14 194.111 210.14 194.111 209.72 201.041C210.34 211.261 210.34 211.261 220.87 211.261Z" fill="#FEFEFE"/>
<path d="M386.23 211.62C385.75 211.44 385.29 211.17 384.84 210.8C385.26 211.3 385.73 211.53 386.23 211.62Z" fill="#FEFEFE"/>
<path d="M445.92 207.04C445.87 204.21 445.51 201.35 445.83 198.56C446.27 194.68 444.75 193.9 441.12 193.95C426.63 194.16 412.14 193.96 397.66 194.09C393.57 194.13 388.43 192.28 385.66 194.98C383.32 197.26 385.2 202.27 384.9 206.05C384.87 206.38 384.78 206.71 384.72 207.04C384.76 208.29 384.8 209.55 384.84 210.8C394.77 210.92 404.7 211.02 414.63 211.2C415.13 211.21 418.16 210.24 415.72 212.72C413.54 215.72 411.18 218.49 410.63 222.49C408.96 234.45 410.32 246.43 409.84 258.39C409.73 260.86 411.22 260.97 413.04 260.95C417.87 260.91 422.7 260.95 427.53 260.94C433.99 260.93 434.43 260.52 434.45 254.25C434.48 245.75 434.44 237.26 434.47 228.76C434.49 224.61 434.23 220.44 435.22 216.33C435.92 213.43 437.25 211.41 440.68 212.03C444.71 212.76 446.15 210.77 445.92 207.04Z" fill="#FEFEFE"/>
<path d="M135.22 261.06C144.35 260.92 153.48 260.97 162.61 261.02C166.61 261.05 168.87 258.86 169.64 255.28C170.33 252.06 170.69 248.72 170.78 245.42C170.99 237.63 170.95 229.83 171.02 222.03C170.85 215.36 170.72 208.69 169.76 202.08C167.28 196.1 162.73 193.83 156.39 194.06C149.59 194.29 142.78 194.08 135.97 194.06C135.86 198.2 135.91 202.36 135.6 206.48C135.34 209.93 136.07 211.97 140.09 211.3C141.2 211.12 142.43 211.11 143.42 211.94C146.33 214.81 146.24 218.38 145.78 222.03C145.85 224.84 146.15 227.67 145.93 230.46C145.58 234.65 147.24 239.05 144.68 243.02C140.57 245.03 136.12 243.19 131.91 244.16C131.92 248.64 132.06 253.12 131.9 257.6C131.81 260.13 132.52 261.11 135.22 261.06Z" fill="#FEFEFE"/>
<path d="M178.76 222.03C178.83 233.67 179.03 245.31 178.89 256.94C178.86 260.27 179.89 261.22 183.12 261.08C188.6 260.83 194.1 260.83 199.58 261.08C202.81 261.22 203.85 260.27 203.81 256.94C203.68 245.31 203.87 233.67 203.94 222.03C203.15 215.72 204.6 209.29 203.02 203.02C201.67 198.33 198.8 195.49 193.81 194.63C187.86 193.6 181.89 194.44 175.95 194.09C175.87 199.74 175.8 205.39 175.73 211.04C181.25 213.45 178.29 218.22 178.76 222.03Z" fill="#FEFEFE"/>
<path d="M356.73 222.03C356.81 224.18 357.12 226.36 356.9 228.49C356.53 232.04 357.94 233.09 361.4 232.93C366.87 232.67 372.37 232.7 377.84 232.92C380.93 233.04 381.84 231.99 381.78 228.95C381.63 221.65 381.83 214.34 381.89 207.04C380.59 196.71 377.74 194.15 367.5 194.11C364.34 194.1 361.16 194.35 358.03 194.04C354.38 193.68 353.48 195.19 353.71 198.56C353.95 202.02 353.67 205.53 353.61 209.01C356.86 212.82 357.73 217.2 356.73 222.03Z" fill="#FEFEFE"/>
<path d="M210.83 284.89C210.66 284.5 210.52 284.11 210.4 283.72C210.46 284.13 210.6 284.52 210.83 284.89Z" fill="#FEFEFE"/>
<path d="M234.73 227.09C234.75 223.93 234 222.64 230.6 222.79C223.95 223.09 217.29 222.98 210.64 223.04C210.7 243.66 210.77 264.27 210.83 284.89C217.65 284.89 224.47 284.8 231.29 284.94C233.91 284.99 234.8 284.06 234.72 281.47C234.61 277.66 234.82 273.83 234.89 270.01C234.82 255.7 234.66 241.39 234.73 227.09Z" fill="#FEFEFE"/>
</g>
<defs>
<linearGradient id="paint0_linear_446_17" x1="253.756" y1="507.512" x2="253.756" y2="0" gradientUnits="userSpaceOnUse">
<stop stop-color="#2EC05D"/>
<stop offset="1" stop-color="#1FB58A"/>
</linearGradient>
<clipPath id="clip0_446_17">
<rect width="507.51" height="507.51" fill="white"/>
</clipPath>
</defs>
</svg>
