<svg width="519" height="519" viewBox="0 0 519 519" fill="none" xmlns="http://www.w3.org/2000/svg">
<g clip-path="url(#clip0_445_16)">
<path d="M438.12 519H80.88C36.21 519 0 482.79 0 438.12V80.88C0 36.21 36.21 0 80.88 0H438.11C482.79 0 519 36.21 519 80.88V438.11C519 482.79 482.79 519 438.12 519Z" fill="white"/>
<path d="M233.47 451.97L67.0301 285.53C52.6501 271.15 52.6501 247.85 67.0301 233.47L233.47 67.0301C247.85 52.6501 271.15 52.6501 285.53 67.0301L451.97 233.47C466.35 247.85 466.35 271.15 451.97 285.53L285.53 451.97C271.15 466.35 247.85 466.35 233.47 451.97Z" fill="#EE2121"/>
</g>
<defs>
<clipPath id="clip0_445_16">
<rect width="519" height="519" fill="white"/>
</clipPath>
</defs>
</svg>
