<svg width="73" height="73" viewBox="0 0 73 73" fill="none" xmlns="http://www.w3.org/2000/svg">
<g clip-path="url(#clip0_407_573)">
<path d="M73 11.036C73 20.4491 73 29.8622 73 39.2428C68.5207 39.2428 64.0414 39.0805 59.562 39.2428C54.8555 39.4051 50.506 38.4962 46.2539 36.4513C40.3139 33.5625 34.309 33.6274 28.3041 36.4838C25.8697 37.6523 23.4028 38.7559 20.6763 38.9831C14.5416 39.5024 8.37439 39.048 2.2072 39.2428C0.616719 39.3077 0.0973766 38.9506 0.129835 37.2628C0.227212 29.6025 0.194753 21.9097 0.162294 14.2494C0.162294 13.6003 0.0649177 12.9835 0 12.3344C0 11.9124 0 11.458 0 11.036C0.454424 10.9062 0.454424 10.4518 0.519342 10.1272C1.97999 4.96621 5.35571 1.75278 10.5491 0.389506C10.8413 0.324589 11.2308 0.421965 11.3606 0C28.012 0 44.6634 0 61.3148 0C61.3797 0.259671 61.6069 0.259671 61.8017 0.29213C67.3197 1.33081 70.8253 4.5767 72.5131 9.89996C72.6105 10.2895 72.4807 10.8088 73 11.036Z" fill="#126BF8"/>
<path d="M61.6392 72.9997C44.6632 72.9997 27.6872 72.9997 10.7112 72.9997C10.6138 72.5128 10.1594 72.5452 9.83481 72.4479C4.96597 70.9548 1.88238 67.7738 0.551569 62.8725C0.454192 62.5479 0.51911 62.0935 0.0322266 61.9637C0.0322266 61.6391 0.0322266 61.3145 0.0322266 60.9899C0.129603 60.7951 0.291898 60.6328 0.291898 60.4381C0.291898 54.4981 0.259439 48.5581 0.22698 42.6182C0.454192 41.8392 1.13583 42.1637 1.59025 42.1637C25.4151 42.1637 49.2074 42.1637 73.0322 42.1637C73.0322 48.8827 73.0322 55.5693 73.0322 62.2882C72.4804 62.5155 72.5453 63.0673 72.4155 63.4892C70.7926 68.3905 67.4493 71.4092 62.4506 72.6426C62.126 72.7075 61.7365 72.5452 61.6392 72.9997Z" fill="#070663"/>
</g>
<defs>
<clipPath id="clip0_407_573">
<rect width="73" height="73" fill="white"/>
</clipPath>
</defs>
</svg>
