<svg width="508" height="508" viewBox="0 0 508 508" fill="none" xmlns="http://www.w3.org/2000/svg">
<g clip-path="url(#clip0_446_18)">
<path d="M426.63 507.51H80.88C36.21 507.51 0 471.3 0 426.63V80.88C0 36.21 36.21 0 80.88 0H426.62C471.29 0 507.5 36.21 507.5 80.88V426.62C507.51 471.3 471.3 507.51 426.63 507.51Z" fill="#F48220"/>
<path d="M432.23 253.99C433.29 282.8 419.17 303.75 396.79 319.56C359.44 345.95 315.59 342.87 277.62 311.77C264.63 301.13 252.12 289.9 239.27 279.08C237.36 277.47 236.09 274.26 232.59 275.38L232.43 275.61C233.75 272.68 230.92 271.9 229.56 270.71C215.63 258.56 201.66 246.43 187.52 234.52C178.22 226.69 167.8 220.63 155.88 217.78C138.73 213.69 122.14 214.25 107.13 225.02C103.7 224.57 101.47 226.95 98.9697 228.58C88.2997 235.53 80.6497 245.29 73.9097 255.87C73.2897 247.81 75.7297 240.36 78.5597 233.02C102.09 171.96 171.36 150.9 221.81 189.71C232.46 197.9 242.01 207.5 252.35 216.11C258.93 221.59 264.29 228.6 272.3 232.31L272.33 232.09C292.31 251.86 311.43 272.89 337.77 284.5C358.07 293.45 378.64 292.53 398.66 282.68C414 277.97 424.03 267.04 432.23 253.99Z" fill="#FEFDFC"/>
<path d="M73.9098 255.87C80.6498 245.29 88.2998 235.53 98.9698 228.58C101.47 226.95 103.7 224.57 107.13 225.02C107.49 250.74 120.33 268.97 142.19 280.82C168.68 295.18 195.36 292.95 221.56 279.29C225 277.49 228.2 275.03 232.43 275.6L232.59 275.37C232.14 276.98 232.12 278.9 231.19 280.14C211.61 306.2 189.09 328.51 155.07 333.64C111.14 340.26 67.2598 309.78 73.9098 255.87Z" fill="#4E5559"/>
<path d="M432.23 253.99C424.02 267.04 414 277.97 398.65 282.67C398.95 259.25 388.48 241.43 368.95 229.49C341.16 212.51 312.56 213.63 284.04 228.23C280.32 230.13 276.83 232.61 272.32 232.08L272.29 232.3C273.8 225.3 279.18 220.86 283.54 215.89C300.45 196.59 319.92 180.78 345.67 175.14C386.55 166.19 425.76 193.49 432.47 235.25C433.46 241.42 436.1 247.8 432.23 253.99Z" fill="#4E5559"/>
</g>
<defs>
<clipPath id="clip0_446_18">
<rect width="507.51" height="507.51" fill="white"/>
</clipPath>
</defs>
</svg>
