<svg width="219" height="205" viewBox="0 0 219 205" fill="none" xmlns="http://www.w3.org/2000/svg">
<path d="M78.7031 20.5H140.297C142.179 20.5 143.719 22.0375 143.719 23.9167V41H75.2812V23.9167C75.2812 22.0375 76.8211 20.5 78.7031 20.5ZM54.75 23.9167V41V54.6667V205H164.25V54.6667V41V23.9167C164.25 10.7198 153.514 0 140.297 0H78.7031C65.4861 0 54.75 10.7198 54.75 23.9167ZM41.0625 41H27.375C12.276 41 0 53.2573 0 68.3333V177.667C0 192.743 12.276 205 27.375 205H41.0625V41ZM177.938 205H191.625C206.724 205 219 192.743 219 177.667V68.3333C219 53.2573 206.724 41 191.625 41H177.938V205ZM95.8125 88.8333C95.8125 85.075 98.8922 82 102.656 82H116.344C120.108 82 123.188 85.075 123.188 88.8333V109.333H143.719C147.483 109.333 150.562 112.408 150.562 116.167V129.833C150.562 133.592 147.483 136.667 143.719 136.667H123.188V157.167C123.188 160.925 120.108 164 116.344 164H102.656C98.8922 164 95.8125 160.925 95.8125 157.167V136.667H75.2812C71.5172 136.667 68.4375 133.592 68.4375 129.833V116.167C68.4375 112.408 71.5172 109.333 75.2812 109.333H95.8125V88.8333Z" fill="#D6CC72"/>
</svg>
