<svg width="192" height="219" viewBox="0 0 192 219" fill="none" xmlns="http://www.w3.org/2000/svg">
<path d="M54.8571 0C62.4429 0 68.5714 6.1166 68.5714 13.6875V27.375H123.429V13.6875C123.429 6.1166 129.557 0 137.143 0C144.729 0 150.857 6.1166 150.857 13.6875V27.375H171.429C182.786 27.375 192 36.5713 192 47.9062V68.4375H0V47.9062C0 36.5713 9.21429 27.375 20.5714 27.375H41.1429V13.6875C41.1429 6.1166 47.2714 0 54.8571 0ZM0 82.125H192V198.469C192 209.804 182.786 219 171.429 219H20.5714C9.21429 219 0 209.804 0 198.469V82.125ZM27.4286 116.344V130.031C27.4286 133.795 30.5143 136.875 34.2857 136.875H48C51.7714 136.875 54.8571 133.795 54.8571 130.031V116.344C54.8571 112.58 51.7714 109.5 48 109.5H34.2857C30.5143 109.5 27.4286 112.58 27.4286 116.344ZM82.2857 116.344V130.031C82.2857 133.795 85.3714 136.875 89.1429 136.875H102.857C106.629 136.875 109.714 133.795 109.714 130.031V116.344C109.714 112.58 106.629 109.5 102.857 109.5H89.1429C85.3714 109.5 82.2857 112.58 82.2857 116.344ZM144 109.5C140.229 109.5 137.143 112.58 137.143 116.344V130.031C137.143 133.795 140.229 136.875 144 136.875H157.714C161.486 136.875 164.571 133.795 164.571 130.031V116.344C164.571 112.58 161.486 109.5 157.714 109.5H144ZM27.4286 171.094V184.781C27.4286 188.545 30.5143 191.625 34.2857 191.625H48C51.7714 191.625 54.8571 188.545 54.8571 184.781V171.094C54.8571 167.33 51.7714 164.25 48 164.25H34.2857C30.5143 164.25 27.4286 167.33 27.4286 171.094ZM89.1429 164.25C85.3714 164.25 82.2857 167.33 82.2857 171.094V184.781C82.2857 188.545 85.3714 191.625 89.1429 191.625H102.857C106.629 191.625 109.714 188.545 109.714 184.781V171.094C109.714 167.33 106.629 164.25 102.857 164.25H89.1429ZM137.143 171.094V184.781C137.143 188.545 140.229 191.625 144 191.625H157.714C161.486 191.625 164.571 188.545 164.571 184.781V171.094C164.571 167.33 161.486 164.25 157.714 164.25H144C140.229 164.25 137.143 167.33 137.143 171.094Z" fill="#F8FBFD"/>
</svg>
