<svg width="53" height="64" viewBox="0 0 53 64" fill="none" xmlns="http://www.w3.org/2000/svg">
<g clip-path="url(#clip0_407_588)">
<path d="M13.8408 55.2171C13.2649 56.1774 12.3912 56.6176 11.2792 56.6176C8.4991 56.6176 5.71903 56.6376 2.95882 56.5976C0.973061 56.5776 -0.258112 55.0371 0.0794677 53.0565C1.19149 46.3144 2.34324 39.5723 3.45526 32.8101C4.58715 25.908 5.69917 19.0058 6.85092 12.0837C7.38707 8.88266 7.90337 5.66165 8.47924 2.46065C8.75725 0.900161 9.96856 0.0198861 11.7359 0.0198861C17.7925 0.0198861 23.8292 -0.00012019 29.8858 0.0198861C32.0304 0.0198861 34.175 -0.0801452 36.3196 0.179936C41.3833 0.80013 46.1889 4.94142 47.5193 9.90298C48.0952 12.0436 48.3335 14.2043 47.8966 16.405C47.4598 16.6651 47.1222 16.365 46.8045 16.1849C44.6598 14.9646 42.3365 14.5444 39.9337 14.5244C35.148 14.4844 30.3425 14.5044 25.5369 14.5044C25.0008 14.5044 24.4845 14.5444 23.9483 14.6445C22.1016 14.9646 20.9498 16.0449 20.652 17.8655C19.7782 22.9471 18.9244 28.0486 18.1102 33.1502C17.8918 34.4907 17.5145 35.8111 17.5145 37.1915C16.4024 42.5532 15.6677 47.9949 14.6947 53.3766C14.5557 54.0568 14.516 54.797 13.8408 55.2171Z" fill="#132D82"/>
<path d="M13.8408 55.217C14.7146 53.1564 14.7543 50.9157 15.1514 48.735C15.7472 45.454 16.2238 42.173 16.7996 38.8719C16.8989 38.2917 17.1571 37.7516 17.3358 37.1914C17.4748 36.2111 18.2492 35.871 19.0237 35.5909C19.7187 35.3308 20.4534 35.3308 21.1683 35.3108C23.9087 35.2508 26.649 35.4909 29.3695 35.1508C33.3212 34.6506 36.7963 33.0901 39.8543 30.5693C43.945 27.2083 46.5066 22.8869 47.4399 17.6253C47.4995 17.2452 47.5591 16.825 47.9364 16.585C51.8285 19.5059 53.3972 23.4071 52.9008 28.2486C52.3051 34.0904 49.6243 38.6919 44.9379 42.1129C41.6217 44.5137 37.8686 45.594 33.7978 45.634C32.8843 45.634 31.9708 45.534 31.0375 45.7741C29.0716 46.2942 28.0192 47.6147 27.6816 49.5353C26.9667 53.6165 26.3313 57.6978 25.6561 61.7791C25.4377 63.1195 24.4051 63.9998 23.0349 64.0198C20.5924 64.0398 18.1499 64.0398 15.7075 64.0198C14.1387 63.9998 13.0068 62.8594 13.1458 61.2589C13.2848 59.5784 13.6224 57.9179 13.9004 56.2574C13.9401 55.8772 14.1586 55.5371 13.8408 55.217Z" fill="#3286C7"/>
<path d="M47.9562 16.5856C47.2414 21.6872 45.0967 26.1086 41.3834 29.6497C37.392 33.4309 32.646 35.5115 27.1256 35.6116C24.9412 35.6516 22.7569 35.6316 20.5924 35.6316C19.262 35.6316 18.1301 36.0317 17.3556 37.1921C16.9982 36.1317 17.4946 35.1314 17.6535 34.1111C18.1896 30.55 18.7854 27.0089 19.3612 23.4478C19.6988 21.4271 19.9768 19.4065 20.3938 17.3859C20.791 15.5253 22.5385 14.2249 24.7625 14.2049C30.0844 14.1649 35.4062 14.1449 40.7082 14.2049C43.2897 14.2249 45.6726 15.0651 47.8967 16.3856C47.9165 16.4656 47.9364 16.5256 47.9562 16.5856Z" fill="#0C1C67"/>
</g>
<defs>
<clipPath id="clip0_407_588">
<rect width="53" height="64" fill="white"/>
</clipPath>
</defs>
</svg>
