<svg width="247" height="219" viewBox="0 0 247 219" fill="none" xmlns="http://www.w3.org/2000/svg">
<path d="M246.935 109.265C246.935 116.963 240.501 122.992 233.209 122.992H219.484L219.784 191.502C219.784 192.657 219.698 193.811 219.569 194.966V201.894C219.569 211.345 211.892 219 202.412 219H195.549C195.078 219 194.606 219 194.134 218.957C193.533 219 192.933 219 192.332 219L178.392 218.957H168.098C158.618 218.957 150.941 211.302 150.941 201.851V191.588V164.218C150.941 156.649 144.807 150.533 137.215 150.533H109.763C102.171 150.533 96.0375 156.649 96.0375 164.218V191.588V201.851C96.0375 211.302 88.3597 218.957 78.8803 218.957H68.586H54.9031C54.2597 218.957 53.6163 218.914 52.9729 218.872C52.4582 218.914 51.9435 218.957 51.4288 218.957H44.5659C35.0865 218.957 27.4087 211.302 27.4087 201.851V153.954C27.4087 153.569 27.4087 153.142 27.4515 152.757V122.95H13.7258C6.00502 122.95 0 116.963 0 109.222C0 105.373 1.28679 101.952 4.2893 98.9584L114.224 3.42121C117.227 0.427651 120.658 0 123.661 0C126.663 0 130.095 0.855302 132.668 2.99356L242.217 99.0012C245.648 101.995 247.364 105.416 246.935 109.265Z" fill="#D6CC72"/>
</svg>
