<svg width="41" height="38" viewBox="0 0 41 38" fill="none" xmlns="http://www.w3.org/2000/svg">
<path d="M20.5765 0C31.2556 0 38.375 2.6125 38.375 5.9375V7.125V9.5C39.7814 9.5 40.9176 10.5613 40.9176 11.875V16.625C40.9176 17.9387 39.7814 19 38.375 19V30.875C38.375 32.1887 37.2388 33.25 35.8324 33.25V35.625C35.8324 36.9387 34.6961 38 33.2897 38H30.7471C29.3407 38 28.2044 36.9387 28.2044 35.625V33.25H12.9485V35.625C12.9485 36.9387 11.8123 38 10.4059 38H7.86323C6.45683 38 5.32058 36.9387 5.32058 35.625V33.25C3.91418 33.25 2.77794 32.1887 2.77794 30.875V19C1.37154 19 0.235291 17.9387 0.235291 16.625V11.875C0.235291 10.5613 1.37154 9.5 2.77794 9.5V7.125V5.9375C2.77794 2.6125 9.89735 0 20.5765 0ZM7.86323 11.875V19C7.86323 20.3137 8.99948 21.375 10.4059 21.375H19.3051V9.5H10.4059C8.99948 9.5 7.86323 10.5613 7.86323 11.875ZM21.8478 21.375H30.7471C32.1535 21.375 33.2897 20.3137 33.2897 19V11.875C33.2897 10.5613 32.1535 9.5 30.7471 9.5H21.8478V21.375ZM9.13456 29.6875C9.80891 29.6875 10.4556 29.4373 10.9325 28.9919C11.4093 28.5465 11.6772 27.9424 11.6772 27.3125C11.6772 26.6826 11.4093 26.0785 10.9325 25.6331C10.4556 25.1877 9.80891 24.9375 9.13456 24.9375C8.4602 24.9375 7.81347 25.1877 7.33663 25.6331C6.85979 26.0785 6.59191 26.6826 6.59191 27.3125C6.59191 27.9424 6.85979 28.5465 7.33663 28.9919C7.81347 29.4373 8.4602 29.6875 9.13456 29.6875ZM32.0184 29.6875C32.6927 29.6875 33.3395 29.4373 33.8163 28.9919C34.2931 28.5465 34.561 27.9424 34.561 27.3125C34.561 26.6826 34.2931 26.0785 33.8163 25.6331C33.3395 25.1877 32.6927 24.9375 32.0184 24.9375C31.344 24.9375 30.6973 25.1877 30.2205 25.6331C29.7436 26.0785 29.4757 26.6826 29.4757 27.3125C29.4757 27.9424 29.7436 28.5465 30.2205 28.9919C30.6973 29.4373 31.344 29.6875 32.0184 29.6875ZM28.2044 5.9375C28.2044 5.28438 27.6323 4.75 26.9331 4.75H14.2198C13.5206 4.75 12.9485 5.28438 12.9485 5.9375C12.9485 6.59062 13.5206 7.125 14.2198 7.125H26.9331C27.6323 7.125 28.2044 6.59062 28.2044 5.9375Z" fill="#F8FBFD"/>
</svg>
