<svg width="110" height="110" viewBox="0 0 110 110" fill="none" xmlns="http://www.w3.org/2000/svg">
<path d="M110 55.2049C110 24.7128 85.3789 0 55 0C24.6211 0 0 24.7128 0 55.2049C0 81.0821 17.7676 102.819 41.7227 108.792V72.0682H30.3789V55.2049H41.7227V47.9377C41.7227 29.1551 50.1875 20.4431 68.5781 20.4431C72.0586 20.4431 78.0742 21.1331 80.5449 21.8232V37.0908C79.2559 36.9614 77 36.8751 74.1855 36.8751C65.1621 36.8751 61.6816 40.3039 61.6816 49.21V55.2049H79.6426L76.5488 72.0682H61.6602V110C88.9023 106.701 110 83.4327 110 55.2049Z" fill="#0D6680"/>
</svg>
