<svg width="84" height="84" viewBox="0 0 84 84" fill="none" xmlns="http://www.w3.org/2000/svg">
<rect width="84" height="84" rx="42" fill="#508C47"/>
<path d="M42.0719 20C43.6614 20 44.9455 21.3401 44.9455 22.9988V26.3444C45.0892 26.3631 45.2239 26.3819 45.3676 26.41C45.4035 26.4194 45.4305 26.4194 45.4664 26.4287L49.7769 27.2534C51.3394 27.5533 52.3721 29.1183 52.0848 30.7396C51.7974 32.3608 50.2977 33.4479 48.7442 33.148L44.4786 32.3327C41.6678 31.9016 39.1893 32.1921 37.4471 32.9137C35.7049 33.6353 35.0045 34.6287 34.8429 35.5471C34.6632 36.5498 34.7979 37.1121 34.9506 37.4588C35.1123 37.8243 35.4445 38.2366 36.1001 38.6958C37.5638 39.6986 39.8089 40.3545 42.7185 41.1605L42.9789 41.2355C45.5472 41.9477 48.6903 42.8098 51.0251 44.403C52.3003 45.2745 53.5036 46.4553 54.249 48.1046C55.0123 49.7821 55.1739 51.6564 54.8237 53.6525C54.2041 57.2136 51.8513 59.5939 48.9327 60.8403C47.7024 61.3651 46.3644 61.7025 44.9455 61.8711V65.0012C44.9455 66.6599 43.6614 68 42.0719 68C40.4824 68 39.1982 66.6599 39.1982 65.0012V61.7306C39.1623 61.7212 39.1174 61.7212 39.0815 61.7118H39.0635C36.8724 61.3557 33.2713 60.3717 30.8467 59.2472C29.4009 58.5724 28.7453 56.8012 29.3919 55.2925C30.0385 53.7837 31.7357 53.0996 33.1815 53.7743C35.0584 54.6458 38.1476 55.508 39.9346 55.7985C42.7993 56.239 45.1611 55.9859 46.7595 55.3018C48.2772 54.6552 48.9687 53.7181 49.1662 52.5935C49.3368 51.6002 49.2021 51.0285 49.0495 50.6818C48.8789 50.3069 48.5466 49.8946 47.8821 49.4354C46.4093 48.4326 44.1553 47.7766 41.2367 46.9707L40.9853 46.9051C38.4259 46.1742 35.2829 45.3026 32.948 43.7095C31.6729 42.838 30.4785 41.6478 29.7331 39.9984C28.9788 38.321 28.8261 36.4467 29.1853 34.4506C29.8319 30.8708 32.4002 28.5467 35.3188 27.3378C36.5132 26.8411 37.8243 26.5037 39.1982 26.3069V22.9988C39.1982 21.3401 40.4824 20 42.0719 20Z" fill="#F8FBFD"/>
</svg>
