<svg width="107" height="33" viewBox="0 0 107 33" fill="none" xmlns="http://www.w3.org/2000/svg">
<path d="M37.5817 32.2199L42.9622 0.645489H51.5684L46.1838 32.2199H37.5817ZM77.2771 1.32614C75.5724 0.686457 72.9005 0 69.564 0C61.0597 0 55.0699 4.28245 55.0186 10.4201C54.9707 14.9571 59.2952 17.4882 62.5596 18.9984C65.9098 20.5464 67.0357 21.5332 67.0196 22.915C66.9982 25.0316 64.3444 25.9981 61.8705 25.9981C58.4262 25.9981 56.5961 25.5195 53.7697 24.3412L52.6603 23.8394L51.4527 30.9075C53.4629 31.7893 57.1799 32.5525 61.0396 32.5922C70.0864 32.5922 75.9594 28.3586 76.0261 21.8042C76.0582 18.2122 73.7655 15.4791 68.8001 13.2254C65.792 11.7648 63.9498 10.7901 63.9693 9.31104C63.9693 7.99861 65.5286 6.59521 68.8983 6.59521C71.7122 6.5515 73.7513 7.16522 75.3397 7.8049L76.1108 8.16926L77.2771 1.32614ZM99.4241 0.645004H92.774C90.714 0.645004 89.172 1.20727 88.2675 3.26341L75.486 32.1991H84.5233C84.5233 32.1991 86.0006 28.3086 86.3348 27.4542C87.3223 27.4542 96.1018 27.4678 97.3568 27.4678C97.6142 28.5733 98.4039 32.1991 98.4039 32.1991H106.39L99.4241 0.644037V0.645004ZM88.8728 21.0339C89.5848 19.2147 92.3019 12.2074 92.3019 12.2074C92.2513 12.2914 93.0085 10.3793 93.4429 9.19378L94.0245 11.9161C94.0245 11.9161 95.6724 19.4531 96.0169 21.0334H88.8728V21.0339ZM30.2756 0.645004L21.8499 22.1774L20.9523 17.8018C19.3836 12.7575 14.4966 7.29247 9.0332 4.55649L16.7376 32.1696L25.8433 32.1594L39.3925 0.644681L30.2756 0.644521" fill="#0E4595"/>
<path d="M13.9877 0.643921H0.110001L0 1.30086C10.7967 3.91443 17.9405 10.2304 20.9066 17.8203L17.889 3.31055C17.3682 1.31118 15.8569 0.713599 13.9877 0.643921Z" fill="#F2AE14"/>
</svg>
