<svg width="138" height="219" viewBox="0 0 138 219" fill="none" xmlns="http://www.w3.org/2000/svg">
<path d="M41.3935 27.375C41.3935 20.1147 44.3014 13.1518 49.4775 8.01795C54.6535 2.88414 61.6738 0 68.9938 0C76.3139 0 83.3342 2.88414 88.5102 8.01795C93.6863 13.1518 96.5942 20.1147 96.5942 27.375C96.5942 34.6353 93.6863 41.5982 88.5102 46.732C83.3342 51.8659 76.3139 54.75 68.9938 54.75C61.6738 54.75 54.6535 51.8659 49.4775 46.732C44.3014 41.5982 41.3935 34.6353 41.3935 27.375ZM62.0938 164.25V205.312C62.0938 212.883 55.9268 219 48.2936 219C40.6604 219 34.4934 212.883 34.4934 205.312V123.102L25.4802 137.303C21.4264 143.719 12.8875 145.601 6.46184 141.58C0.0361414 137.559 -1.94763 129.133 2.10617 122.76L19.3132 95.6842C30.0515 78.7031 48.8111 68.4375 68.9938 68.4375C89.1766 68.4375 107.936 78.7031 118.674 95.6414L135.882 122.76C139.935 129.176 137.995 137.602 131.569 141.623C125.143 145.644 116.604 143.719 112.551 137.346L103.494 123.102V205.312C103.494 212.883 97.3273 219 89.6941 219C82.0609 219 75.8939 212.883 75.8939 205.312V164.25H62.0938Z" fill="#7EB09B"/>
</svg>
