<svg width="38" height="38" viewBox="0 0 38 38" fill="none" xmlns="http://www.w3.org/2000/svg">
<path d="M19 0C28.975 0 35.625 2.6125 35.625 5.9375V7.125V9.5C36.9387 9.5 38 10.5613 38 11.875V16.625C38 17.9387 36.9387 19 35.625 19V30.875C35.625 32.1887 34.5637 33.25 33.25 33.25V35.625C33.25 36.9387 32.1887 38 30.875 38H28.5C27.1863 38 26.125 36.9387 26.125 35.625V33.25H11.875V35.625C11.875 36.9387 10.8137 38 9.5 38H7.125C5.81133 38 4.75 36.9387 4.75 35.625V33.25C3.43633 33.25 2.375 32.1887 2.375 30.875V19C1.06133 19 0 17.9387 0 16.625V11.875C0 10.5613 1.06133 9.5 2.375 9.5V7.125V5.9375C2.375 2.6125 9.025 0 19 0ZM7.125 11.875V19C7.125 20.3137 8.18633 21.375 9.5 21.375H17.8125V9.5H9.5C8.18633 9.5 7.125 10.5613 7.125 11.875ZM20.1875 21.375H28.5C29.8137 21.375 30.875 20.3137 30.875 19V11.875C30.875 10.5613 29.8137 9.5 28.5 9.5H20.1875V21.375ZM8.3125 29.6875C8.94239 29.6875 9.54648 29.4373 9.99188 28.9919C10.4373 28.5465 10.6875 27.9424 10.6875 27.3125C10.6875 26.6826 10.4373 26.0785 9.99188 25.6331C9.54648 25.1877 8.94239 24.9375 8.3125 24.9375C7.68261 24.9375 7.07852 25.1877 6.63312 25.6331C6.18772 26.0785 5.9375 26.6826 5.9375 27.3125C5.9375 27.9424 6.18772 28.5465 6.63312 28.9919C7.07852 29.4373 7.68261 29.6875 8.3125 29.6875ZM29.6875 29.6875C30.3174 29.6875 30.9215 29.4373 31.3669 28.9919C31.8123 28.5465 32.0625 27.9424 32.0625 27.3125C32.0625 26.6826 31.8123 26.0785 31.3669 25.6331C30.9215 25.1877 30.3174 24.9375 29.6875 24.9375C29.0576 24.9375 28.4535 25.1877 28.0081 25.6331C27.5627 26.0785 27.3125 26.6826 27.3125 27.3125C27.3125 27.9424 27.5627 28.5465 28.0081 28.9919C28.4535 29.4373 29.0576 29.6875 29.6875 29.6875ZM26.125 5.9375C26.125 5.28437 25.5906 4.75 24.9375 4.75H13.0625C12.4094 4.75 11.875 5.28437 11.875 5.9375C11.875 6.59063 12.4094 7.125 13.0625 7.125H24.9375C25.5906 7.125 26.125 6.59063 26.125 5.9375Z" fill="#6B4E82"/>
</svg>
